<?xml version="1.0" encoding="utf-8"?>
<!-- Generator: Adobe Illustrator 16.0.0, SVG Export Plug-In . SVG Version: 6.00 Build 0)  -->
<!DOCTYPE svg PUBLIC "-//W3C//DTD SVG 1.1//EN" "http://www.w3.org/Graphics/SVG/1.1/DTD/svg11.dtd">
<svg version="1.1" id="Layer_1" xmlns="http://www.w3.org/2000/svg" xmlns:xlink="http://www.w3.org/1999/xlink" x="0px" y="0px"
	 width="50px" height="50px" viewBox="0 0 50 50" enable-background="new 0 0 50 50" xml:space="preserve">
<g>
	<rect id="back_110_" x="0.25" fill="#C04200" width="50" height="50"/>
	<g id="Github_14_">
		<path fill-rule="evenodd" clip-rule="evenodd" fill="#FFFFFF" d="M25.25,11.346c-7.73,0-14,6.268-14,14
			c0,6.186,4.012,11.434,9.574,13.285c0.699,0.129,0.957-0.305,0.957-0.674c0-0.334-0.014-1.438-0.02-2.607
			c-3.895,0.848-4.717-1.651-4.717-1.651c-0.637-1.618-1.555-2.048-1.555-2.048c-1.271-0.869,0.097-0.852,0.097-0.852
			c1.405,0.099,2.146,1.443,2.146,1.443c1.248,2.14,3.275,1.521,4.074,1.163c0.126-0.905,0.488-1.522,0.889-1.872
			c-3.109-0.354-6.379-1.555-6.379-6.919c0-1.528,0.547-2.777,1.443-3.758c-0.146-0.353-0.625-1.776,0.136-3.705
			c0,0,1.175-0.376,3.851,1.436c1.116-0.311,2.314-0.466,3.504-0.472c1.189,0.006,2.389,0.161,3.507,0.472
			c2.673-1.812,3.847-1.436,3.847-1.436c0.762,1.929,0.283,3.353,0.138,3.705c0.897,0.98,1.44,2.229,1.44,3.758
			c0,5.378-3.275,6.562-6.393,6.908c0.502,0.435,0.949,1.286,0.949,2.593c0,1.873-0.016,3.381-0.016,3.842
			c0,0.372,0.252,0.809,0.962,0.672c5.56-1.854,9.565-7.1,9.565-13.283C39.25,17.613,32.982,11.346,25.25,11.346z"/>
		<path fill="#FFFFFF" d="M16.553,31.446c-0.031,0.069-0.141,0.091-0.24,0.044c-0.102-0.047-0.158-0.142-0.125-0.211
			c0.029-0.072,0.139-0.092,0.24-0.044C16.53,31.281,16.588,31.377,16.553,31.446L16.553,31.446z M16.381,31.318"/>
		<path fill="#FFFFFF" d="M17.12,32.079c-0.067,0.062-0.197,0.033-0.286-0.064c-0.092-0.098-0.108-0.229-0.041-0.291
			c0.069-0.062,0.195-0.033,0.287,0.064C17.172,31.887,17.189,32.017,17.12,32.079L17.12,32.079z M16.986,31.936"/>
		<path fill="#FFFFFF" d="M17.672,32.885c-0.086,0.061-0.227,0.004-0.313-0.12s-0.086-0.274,0.001-0.333
			c0.088-0.061,0.226-0.007,0.313,0.117C17.76,32.676,17.76,32.824,17.672,32.885L17.672,32.885z M17.672,32.885"/>
		<path fill="#FFFFFF" d="M18.428,33.664c-0.076,0.085-0.24,0.063-0.359-0.054c-0.123-0.112-0.156-0.272-0.08-0.357
			c0.078-0.085,0.242-0.062,0.363,0.054C18.473,33.42,18.51,33.581,18.428,33.664L18.428,33.664z M18.428,33.664"/>
		<path fill="#FFFFFF" d="M19.471,34.117c-0.033,0.109-0.19,0.158-0.35,0.112c-0.158-0.048-0.262-0.177-0.229-0.287
			s0.19-0.163,0.351-0.112C19.4,33.877,19.504,34.005,19.471,34.117L19.471,34.117z M19.471,34.117"/>
		<path fill="#FFFFFF" d="M20.617,34.2c0.004,0.116-0.131,0.212-0.297,0.214c-0.168,0.004-0.304-0.09-0.305-0.204
			c0-0.116,0.131-0.211,0.299-0.214C20.48,33.993,20.617,34.086,20.617,34.2L20.617,34.2z M20.617,34.2"/>
		<path fill="#FFFFFF" d="M21.684,34.02c0.02,0.112-0.096,0.229-0.262,0.259c-0.162,0.029-0.313-0.04-0.333-0.151
			c-0.021-0.115,0.098-0.231,0.26-0.262C21.514,33.837,21.662,33.904,21.684,34.02L21.684,34.02z M21.684,34.02"/>
	</g>
</g>
</svg>
