<?xml version="1.0" encoding="utf-8"?>
<!-- Generator: Adobe Illustrator 16.0.0, SVG Export Plug-In . SVG Version: 6.00 Build 0)  -->
<!DOCTYPE svg PUBLIC "-//W3C//DTD SVG 1.1//EN" "http://www.w3.org/Graphics/SVG/1.1/DTD/svg11.dtd">
<svg version="1.1" id="Layer_1" xmlns="http://www.w3.org/2000/svg" xmlns:xlink="http://www.w3.org/1999/xlink" x="0px" y="0px"
	 width="50px" height="50px" viewBox="0 0 50 50" enable-background="new 0 0 50 50" xml:space="preserve">
<g>
	<rect id="back_109_" fill="#C04200" width="50" height="50"/>
	<path id="Facebook_13_" fill="#FFFFFF" d="M37.455,11h-24.91C11.691,11,11,11.691,11,12.545v24.91C11,38.309,11.691,39,12.545,39
		h13.411V28.157h-3.649v-4.226h3.649v-3.117c0-3.616,2.208-5.586,5.435-5.586c1.546,0,2.873,0.115,3.261,0.167v3.779l-2.237,0.001
		c-1.755,0-2.095,0.834-2.095,2.058v2.698h4.185l-0.545,4.226h-3.64V39h7.136C38.308,39,39,38.309,39,37.455v-24.91
		C39,11.691,38.308,11,37.455,11z"/>
</g>
</svg>
