<?xml version="1.0" encoding="utf-8"?>
<!-- Generator: Adobe Illustrator 16.0.0, SVG Export Plug-In . SVG Version: 6.00 Build 0)  -->
<!DOCTYPE svg PUBLIC "-//W3C//DTD SVG 1.1//EN" "http://www.w3.org/Graphics/SVG/1.1/DTD/svg11.dtd">
<svg version="1.1" id="Layer_1" xmlns="http://www.w3.org/2000/svg" xmlns:xlink="http://www.w3.org/1999/xlink" x="0px" y="0px"
	 width="50px" height="50px" viewBox="0 0 50 50" enable-background="new 0 0 50 50" xml:space="preserve">
<g>
	<rect id="back_113_" fill="#C04200" width="50" height="50"/>
	<g id="Linkedin_13_">
		<path fill="#FFFFFF" d="M11.357,20.214h5.808v18.669h-5.808V20.214z M14.263,10.934c1.856,0,3.363,1.508,3.363,3.364
			c0,1.857-1.507,3.365-3.363,3.365c-1.863,0-3.366-1.508-3.366-3.365C10.897,12.441,12.4,10.934,14.263,10.934"/>
		<path fill="#FFFFFF" d="M20.806,20.214h5.562v2.552h0.08c0.774-1.468,2.667-3.016,5.49-3.016c5.875,0,6.96,3.866,6.96,8.894
			v10.239h-5.802v-9.079c0-2.165-0.037-4.95-3.015-4.95c-3.019,0-3.48,2.359-3.48,4.795v9.234h-5.795V20.214z"/>
	</g>
</g>
</svg>
