<?xml version="1.0" encoding="utf-8"?>
<!-- Generator: Adobe Illustrator 16.0.0, SVG Export Plug-In . SVG Version: 6.00 Build 0)  -->
<!DOCTYPE svg PUBLIC "-//W3C//DTD SVG 1.1//EN" "http://www.w3.org/Graphics/SVG/1.1/DTD/svg11.dtd">
<svg version="1.1" xmlns="http://www.w3.org/2000/svg" xmlns:xlink="http://www.w3.org/1999/xlink" x="0px" y="0px"
	 width="102.898px" height="96.296px" viewBox="0 0 102.898 96.296" enable-background="new 0 0 102.898 96.296"
	 xml:space="preserve">
<g id="Logo_x5F_02">
</g>
<g id="Logo_x5F_03">
</g>
<g id="Logo_x5F_04">
</g>
<g id="Logo_x5F_05">
</g>
<g id="Logo_x5F_01">
	<path display="none" fill="#FF931E" d="M55.557,40.83c53.75,30-18.5,92-68.75,18.5c-0.5-2.75,27.75-29.25,27.75-29.25"/>
	<g>
		<path fill="#C04200" d="M69.557,19.455c-66.951,19.693-22.25-7.5-19.5,19.5c-20.258,16.07-42.5-32.125-2-36.875
			S136.508-0.238,69.557,19.455z"/>
		<path fill="#C04200" d="M50.057,36.83c49.5-31-4.5,117.5-45.75,33.25c-15.25-39.25,14.626-34.857,18.126-23.357
			C48.557,103.33,58.639,28.33,64.16,43.455S53.792,42.275,50.057,36.83z"/>
		<path fill="#C04200" d="M49.057,5.33c4.75-2.25,4.75-2.25,8,0c-12,11.25,8,37.25-18,60C52.55,42.51,44.304,35.331,49.057,5.33z"/>
	</g>
</g>
</svg>
