<?xml version="1.0" encoding="utf-8"?>
<!-- Generator: Adobe Illustrator 16.0.0, SVG Export Plug-In . SVG Version: 6.00 Build 0)  -->
<!DOCTYPE svg PUBLIC "-//W3C//DTD SVG 1.1//EN" "http://www.w3.org/Graphics/SVG/1.1/DTD/svg11.dtd">
<svg version="1.1" xmlns="http://www.w3.org/2000/svg" xmlns:xlink="http://www.w3.org/1999/xlink" x="0px" y="0px"
	 width="379.679px" height="171px" viewBox="0 0 379.679 171" enable-background="new 0 0 379.679 171" xml:space="preserve">
<g id="Layer_1" display="none">
	<g display="inline">
		<g display="none">
			<path display="inline" fill="none" stroke="#000000" stroke-miterlimit="10" d="M111.763,275.272"/>
		</g>
		<rect x="-93.405" y="-152" fill="#020101" width="964" height="563"/>
	</g>
	<g display="inline">
		<g display="none">
			<path display="inline" d="M111.763,275.272"/>
			<path display="inline" d="M111.763,275.272"/>
		</g>
		<rect x="-93.405" y="-152" width="964" height="563"/>
	</g>
</g>
<g id="K" opacity="0.5">
	<g>
		<g>
			<g>
				<g>
					<g>
						<path fill="#202020" d="M166.671,85.5c-9.88,2.98-16.413,5.299-26.743,11.377c-1.747,1.035-4.589,2.72-10.496,6.221
							c-4.7,2.805-15.836,9.449-15.836,9.449s-9.336,5.536-14.512,8.605c-7.869,4.699-12.739,7.607-15.283,9.126
							c-10.271,6.182-15.424,10.817-22.755,18.08c9.88-2.98,16.412-5.299,26.744-11.377c2.548-1.511,7.427-4.404,15.31-9.08
							c5.166-3.085,14.484-8.651,14.484-8.651s11.151-6.618,15.858-9.412c5.894-3.522,8.73-5.216,10.473-6.258
							C154.186,97.398,159.339,92.762,166.671,85.5z"/>
					</g>
				</g>
			</g>
			<g>
				<g>
					<g>
						<path fill="#202020" d="M49.92,115.208c7.332,7.263,12.485,11.898,22.754,18.08c1.743,1.041,4.579,2.736,10.473,6.258
							c2.867,1.698,9.658,5.723,9.658,5.723s5.669,3.394,8.812,5.274c7.883,4.676,12.762,7.569,15.31,9.08
							c10.332,6.079,16.864,8.397,26.744,11.377c-7.331-7.262-12.484-11.897-22.754-18.08c-2.543-1.519-7.414-4.427-15.283-9.126
							c-3.152-1.865-8.839-5.229-8.839-5.229s-6.775-4.05-9.635-5.76c-5.907-3.501-8.749-5.185-10.496-6.22
							C66.333,120.507,59.801,118.188,49.92,115.208z"/>
					</g>
				</g>
			</g>
			<g>
				<g>
					<g>
						<path fill="#202020" d="M83.095,0c-2.492,10.015-3.84,16.813-3.9,28.799C79.191,30.83,79.186,34.134,79.173,41
							c0.006,12.928,0.021,43.554,0.021,43.554s-0.017,25.634-0.026,39.846c0.014,9.166,0.022,14.837,0.026,17.8
							c0.06,11.987,1.408,18.786,3.9,28.8c2.492-10.014,3.84-16.813,3.901-28.8c0.004-2.963,0.013-8.635,0.027-17.8
							c-0.01-14.212-0.027-39.846-0.027-39.846S87.011,53.928,87.018,41c-0.012-6.866-0.019-10.17-0.022-12.201
							C86.935,16.813,85.586,10.015,83.095,0z"/>
					</g>
				</g>
			</g>
		</g>
	</g>
	<g>
		<g>
			<g>
				<line fill="#0F5474" x1="166.671" y1="85.5" x2="61.048" y2="148.357"/>
				<g>
					<g>
						<path fill="#0F5474" d="M166.671,85.5c-9.88,2.98-16.413,5.299-26.743,11.377c-1.747,1.035-4.589,2.72-10.496,6.221
							c-4.7,2.805-15.836,9.449-15.836,9.449s-9.336,5.536-14.512,8.605c-7.869,4.699-12.739,7.607-15.283,9.126
							c-10.271,6.182-15.424,10.817-22.755,18.08c9.88-2.98,16.412-5.299,26.744-11.377c2.548-1.511,7.427-4.404,15.31-9.08
							c5.166-3.085,14.484-8.651,14.484-8.651s11.151-6.618,15.858-9.412c5.894-3.522,8.73-5.216,10.473-6.258
							C154.186,97.398,159.339,92.762,166.671,85.5z"/>
					</g>
				</g>
			</g>
			<g>
				<line fill="#0F5474" x1="49.921" y1="115.208" x2="143.671" y2="171"/>
				<g>
					<g>
						<path fill="#0F5474" d="M49.92,115.208c7.332,7.263,12.485,11.898,22.754,18.08c1.743,1.041,4.579,2.736,10.473,6.258
							c2.867,1.698,9.658,5.723,9.658,5.723s5.669,3.394,8.812,5.274c7.883,4.676,12.762,7.569,15.31,9.08
							c10.332,6.079,16.864,8.397,26.744,11.377c-7.331-7.262-12.484-11.897-22.754-18.08c-2.543-1.519-7.414-4.427-15.283-9.126
							c-3.152-1.865-8.839-5.229-8.839-5.229s-6.775-4.05-9.635-5.76c-5.907-3.501-8.749-5.185-10.496-6.22
							C66.333,120.507,59.801,118.188,49.92,115.208z"/>
					</g>
				</g>
			</g>
			<g>
				<line fill="#0F5474" x1="82.595" y1="0" x2="82.595" y2="171"/>
				<g>
					<g>
						<path fill="#0F5474" d="M83.095,0c-2.492,10.015-3.84,16.813-3.9,28.799C79.191,30.83,79.186,34.134,79.173,41
							c0.006,12.928,0.021,43.554,0.021,43.554s-0.017,25.634-0.026,39.846c0.014,9.166,0.022,14.837,0.026,17.8
							c0.06,11.987,1.408,18.786,3.9,28.8c2.492-10.014,3.84-16.813,3.901-28.8c0.004-2.963,0.013-8.635,0.027-17.8
							c-0.01-14.212-0.027-39.846-0.027-39.846S87.011,53.928,87.018,41c-0.012-6.866-0.019-10.17-0.022-12.201
							C86.935,16.813,85.586,10.015,83.095,0z"/>
					</g>
				</g>
			</g>
		</g>
	</g>
</g>
<g id="E" opacity="0.5">
	<g>
		<g>
			<g>
				<line fill="#1885B8" x1="83.595" y1="136" x2="119.595" y2="136"/>
				<g>
					<g>
						<path fill="#202020" d="M83.595,135.5c1.688,2.492,2.834,3.84,4.854,3.9c2.188,0.064,13.146,0,13.146,0s10.958,0.064,13.146,0
							c2.021-0.061,3.167-1.408,4.854-3.9c-1.688-2.491-2.833-3.84-4.854-3.9c-2.188-0.065-13.146,0-13.146,0
							s-10.958-0.065-13.146,0C86.429,131.66,85.283,133.009,83.595,135.5z"/>
					</g>
				</g>
			</g>
			<g>
				<g>
					<g>
						<path fill="#202020" d="M49.92,115.208c7.332,7.263,12.485,11.898,22.754,18.08c1.743,1.041,4.579,2.736,10.473,6.258
							c2.867,1.698,9.658,5.723,9.658,5.723s5.669,3.394,8.812,5.274c7.883,4.676,12.762,7.569,15.31,9.08
							c10.332,6.079,16.864,8.397,26.744,11.377c-7.331-7.262-12.484-11.897-22.754-18.08c-2.543-1.519-7.414-4.427-15.283-9.126
							c-3.152-1.865-8.839-5.229-8.839-5.229s-6.775-4.05-9.635-5.76c-5.907-3.501-8.749-5.185-10.496-6.22
							C66.333,120.507,59.801,118.188,49.92,115.208z"/>
					</g>
				</g>
			</g>
			<g>
				<g>
					<g>
						<path fill="#202020" d="M166.671,85.5c-9.88,2.98-16.413,5.299-26.743,11.377c-1.747,1.035-4.589,2.72-10.496,6.221
							c-4.7,2.805-15.836,9.449-15.836,9.449s-9.336,5.536-14.512,8.605c-7.869,4.699-12.739,7.607-15.283,9.126
							c-10.271,6.182-15.424,10.817-22.755,18.08c9.88-2.98,16.412-5.299,26.744-11.377c2.548-1.511,7.427-4.404,15.31-9.08
							c5.166-3.085,14.484-8.651,14.484-8.651s11.151-6.618,15.858-9.412c5.894-3.522,8.73-5.216,10.473-6.258
							C154.186,97.398,159.339,92.762,166.671,85.5z"/>
					</g>
				</g>
			</g>
		</g>
	</g>
	<g>
		<g>
			<g>
				<line fill="#1885B8" x1="83.595" y1="136" x2="119.595" y2="136"/>
				<g>
					<g>
						<path fill="#1885B8" d="M83.595,135.5c1.688,2.492,2.834,3.84,4.854,3.9c2.188,0.064,13.146,0,13.146,0s10.958,0.064,13.146,0
							c2.021-0.061,3.167-1.408,4.854-3.9c-1.688-2.491-2.833-3.84-4.854-3.9c-2.188-0.065-13.146,0-13.146,0
							s-10.958-0.065-13.146,0C86.429,131.66,85.283,133.009,83.595,135.5z"/>
					</g>
				</g>
			</g>
			<g>
				<line fill="#1885B8" x1="49.921" y1="115.208" x2="143.671" y2="171"/>
				<g>
					<g>
						<path fill="#1885B8" d="M49.92,115.208c7.332,7.263,12.485,11.898,22.754,18.08c1.743,1.041,4.579,2.736,10.473,6.258
							c2.867,1.698,9.658,5.723,9.658,5.723s5.669,3.394,8.812,5.274c7.883,4.676,12.762,7.569,15.31,9.08
							c10.332,6.079,16.864,8.397,26.744,11.377c-7.331-7.262-12.484-11.897-22.754-18.08c-2.543-1.519-7.414-4.427-15.283-9.126
							c-3.152-1.865-8.839-5.229-8.839-5.229s-6.775-4.05-9.635-5.76c-5.907-3.501-8.749-5.185-10.496-6.22
							C66.333,120.507,59.801,118.188,49.92,115.208z"/>
					</g>
				</g>
			</g>
			<g>
				<line fill="#1885B8" x1="166.671" y1="85.5" x2="61.048" y2="148.357"/>
				<g>
					<g>
						<path fill="#1885B8" d="M166.671,85.5c-9.88,2.98-16.413,5.299-26.743,11.377c-1.747,1.035-4.589,2.72-10.496,6.221
							c-4.7,2.805-15.836,9.449-15.836,9.449s-9.336,5.536-14.512,8.605c-7.869,4.699-12.739,7.607-15.283,9.126
							c-10.271,6.182-15.424,10.817-22.755,18.08c9.88-2.98,16.412-5.299,26.744-11.377c2.548-1.511,7.427-4.404,15.31-9.08
							c5.166-3.085,14.484-8.651,14.484-8.651s11.151-6.618,15.858-9.412c5.894-3.522,8.73-5.216,10.473-6.258
							C154.186,97.398,159.339,92.762,166.671,85.5z"/>
					</g>
				</g>
			</g>
		</g>
	</g>
</g>
<g id="X" opacity="0.5">
	<g>
		<g>
			<g>
				<g>
					<g>
						<path fill="#202020" d="M0,85.5c7.332,7.263,12.485,11.898,22.754,18.079c1.743,1.042,4.579,2.736,10.473,6.258
							c10.605,6.303,35.728,21.236,35.728,21.236s21.013,12.525,32.663,19.469c7.883,4.676,12.762,7.569,15.31,9.08
							c10.332,6.079,16.864,8.397,26.744,11.377c-7.331-7.262-12.484-11.897-22.754-18.08c-2.543-1.519-7.414-4.427-15.283-9.126
							c-11.659-6.928-32.69-19.423-32.69-19.423s-25.107-14.959-35.705-21.274c-5.907-3.501-8.749-5.186-10.496-6.221
							C16.413,90.799,9.88,88.48,0,85.5z"/>
					</g>
				</g>
			</g>
			<g>
				<g>
					<g>
						<path fill="#202020" d="M166.671,85.5c-9.88,2.98-16.413,5.299-26.743,11.377c-1.747,1.035-4.589,2.72-10.496,6.221
							c-10.598,6.314-35.705,21.274-35.705,21.274s-21.031,12.495-32.69,19.423c-7.869,4.699-12.739,7.607-15.283,9.126
							C35.484,159.102,30.331,163.737,23,171c9.88-2.98,16.412-5.299,26.744-11.377c2.548-1.511,7.427-4.404,15.31-9.08
							c11.649-6.943,32.663-19.469,32.663-19.469s25.123-14.933,35.728-21.236c5.894-3.522,8.73-5.216,10.473-6.258
							C154.186,97.398,159.34,92.762,166.671,85.5z"/>
					</g>
				</g>
			</g>
		</g>
	</g>
	<g>
		<g>
			<g>
				<line fill="#37AEE5" x1="0" y1="85.5" x2="143.671" y2="171"/>
				<g>
					<g>
						<path fill="#37AEE5" d="M0,85.5c7.332,7.263,12.485,11.898,22.754,18.079c1.743,1.042,4.579,2.736,10.473,6.258
							c10.605,6.303,35.728,21.236,35.728,21.236s21.013,12.525,32.663,19.469c7.883,4.676,12.762,7.569,15.31,9.08
							c10.332,6.079,16.864,8.397,26.744,11.377c-7.331-7.262-12.484-11.897-22.754-18.08c-2.543-1.519-7.414-4.427-15.283-9.126
							c-11.659-6.928-32.69-19.423-32.69-19.423s-25.107-14.959-35.705-21.274c-5.907-3.501-8.749-5.186-10.496-6.221
							C16.413,90.799,9.88,88.48,0,85.5z"/>
					</g>
				</g>
			</g>
			<g>
				<line fill="#37AEE5" x1="166.671" y1="85.5" x2="23" y2="171"/>
				<g>
					<g>
						<path fill="#37AEE5" d="M166.671,85.5c-9.88,2.98-16.413,5.299-26.743,11.377c-1.747,1.035-4.589,2.72-10.496,6.221
							c-10.598,6.314-35.705,21.274-35.705,21.274s-21.031,12.495-32.69,19.423c-7.869,4.699-12.739,7.607-15.283,9.126
							C35.484,159.102,30.331,163.737,23,171c9.88-2.98,16.412-5.299,26.744-11.377c2.548-1.511,7.427-4.404,15.31-9.08
							c11.649-6.943,32.663-19.469,32.663-19.469s25.123-14.933,35.728-21.236c5.894-3.522,8.73-5.216,10.473-6.258
							C154.186,97.398,159.34,92.762,166.671,85.5z"/>
					</g>
				</g>
			</g>
		</g>
	</g>
</g>
<g id="Text">
	<g>
		<path fill="#FFFFFF" d="M281.5,71.25h-2.776l-3-20.273V71.25h-3v-40.5h3V49.5l3.001-18.75h2.967l-2.997,17.245l-0.518,2.29
			l0.355,2.243L281.5,71.25z"/>
		<path fill="#FFFFFF" d="M294.084,33h-3.75v15.75h3V51h-3v18h3.75v2.25h-6.75v-40.5h6.75V33z"/>
		<path fill="#FFFFFF" d="M302.937,41.271l0.463,6.013l0.359-5.999l0.435-10.535h3L304.944,51l2.25,20.25h-3l-1.031-10.53
			l-0.516-6.017l-0.411,6.008l-0.72,10.539h-2.571l2.25-20.25l-2.25-20.25h3.121L302.937,41.271z"/>
	</g>
	<g>
		<path fill="#FFFFFF" d="M253.784,144.563c0,0.938-0.172,1.66-0.516,2.168s-0.797,0.879-1.359,1.113s-1.203,0.371-1.922,0.41
			s-1.453,0.059-2.203,0.059h-3v-40.5h3c0.75,0,1.484,0.02,2.203,0.059s1.359,0.176,1.922,0.41s1.016,0.605,1.359,1.113
			s0.516,1.23,0.516,2.168V144.563z M250.784,111.563c0-0.375-0.051-0.664-0.152-0.867s-0.27-0.352-0.504-0.445
			s-0.543-0.148-0.926-0.164s-0.855-0.023-1.418-0.023v36c0.563,0,1.035-0.008,1.418-0.023s0.691-0.07,0.926-0.164
			s0.402-0.242,0.504-0.445s0.152-0.492,0.152-0.867V111.563z"/>
		<path fill="#FFFFFF" d="M266.144,114.563h-3v13.5h3v2.25h-3v15.75h3v2.25h-6v-36h6V114.563z"/>
		<path fill="#FFFFFF" d="M280.004,125.063h-3v-9.375c0-0.563-0.117-0.953-0.352-1.172s-0.492-0.328-0.773-0.328
			s-0.539,0.109-0.773,0.328s-0.352,0.609-0.352,1.172c0,1.673,0.078,3.212,0.233,4.618c0.155,1.407,0.357,2.704,0.606,3.892
			s0.542,2.264,0.88,3.229c0.338,0.965,0.652,1.859,0.942,2.685c0.227,0.648,0.489,1.396,0.787,2.243
			c0.297,0.847,0.58,1.856,0.85,3.027c0.27,1.171,0.496,2.538,0.678,4.1s0.274,3.381,0.274,5.458c0,0.656-0.117,1.223-0.352,1.698
			c-0.234,0.477-0.547,0.867-0.938,1.172c-0.391,0.305-0.832,0.526-1.324,0.667s-0.996,0.211-1.512,0.211s-1.02-0.07-1.512-0.211
			s-0.934-0.363-1.324-0.668c-0.391-0.305-0.703-0.695-0.938-1.172s-0.352-1.043-0.352-1.699v-9.375h3v9.375
			c0,0.563,0.117,0.953,0.352,1.172s0.492,0.328,0.773,0.328s0.539-0.109,0.773-0.328s0.352-0.609,0.352-1.172
			c0-2.015-0.099-3.783-0.295-5.307c-0.197-1.522-0.445-2.865-0.744-4.029c-0.299-1.164-0.61-2.189-0.933-3.078
			c-0.323-0.889-0.618-1.699-0.885-2.434c-0.262-0.719-0.559-1.533-0.889-2.443c-0.331-0.91-0.602-1.951-0.813-3.123
			s-0.379-2.488-0.504-3.949c-0.125-1.461-0.188-3.09-0.188-4.887c0-0.656,0.117-1.219,0.352-1.688s0.547-0.855,0.938-1.16
			c0.39-0.305,0.832-0.531,1.324-0.68s0.996-0.223,1.512-0.223s1.02,0.074,1.512,0.223s0.934,0.375,1.324,0.68
			c0.39,0.305,0.703,0.691,0.938,1.16s0.352,1.031,0.352,1.688V125.063z"/>
		<path fill="#FFFFFF" d="M289.739,112.313v36h-3v-36H289.739z"/>
		<path fill="#FFFFFF" d="M299.474,144.938c0,0.563,0.117,0.953,0.352,1.172s0.492,0.328,0.773,0.328s0.539-0.109,0.773-0.328
			s0.352-0.609,0.352-1.172v-12.375h-0.75v-2.25h3.75v14.625c0,0.656-0.117,1.223-0.352,1.699s-0.547,0.867-0.938,1.172
			s-0.832,0.527-1.324,0.668s-0.996,0.211-1.512,0.211s-1.02-0.07-1.512-0.211s-0.934-0.363-1.324-0.668s-0.703-0.695-0.938-1.172
			s-0.352-1.043-0.352-1.699v-29.625c0-0.656,0.117-1.223,0.352-1.699s0.547-0.867,0.938-1.172s0.832-0.527,1.324-0.668
			s0.996-0.211,1.512-0.211s1.02,0.07,1.512,0.211s0.934,0.363,1.324,0.668s0.703,0.691,0.938,1.16s0.352,1.031,0.352,1.688v12.023
			h-3v-12.023c0-0.563-0.117-0.949-0.352-1.16s-0.492-0.316-0.773-0.316s-0.539,0.105-0.773,0.316s-0.352,0.598-0.352,1.16V144.938z
			"/>
		<path fill="#FFFFFF" d="M320.083,148.313h-2.25l-4.125-20.9v20.9h-2.625v-36h2.25l4.148,21.023v-21.023h2.602V148.313z"/>
		<path fill="#FFFFFF" d="M334.694,125.063h-3v-9.375c0-0.563-0.117-0.953-0.352-1.172c-0.235-0.219-0.493-0.328-0.774-0.328
			s-0.539,0.109-0.773,0.328s-0.352,0.609-0.352,1.172c0,1.673,0.077,3.212,0.233,4.618c0.154,1.407,0.357,2.704,0.605,3.892
			c0.249,1.188,0.542,2.264,0.881,3.229c0.337,0.965,0.652,1.859,0.941,2.685c0.229,0.648,0.49,1.396,0.787,2.243
			c0.297,0.847,0.58,1.856,0.85,3.027s0.496,2.538,0.678,4.1c0.184,1.562,0.275,3.381,0.275,5.458c0,0.656-0.117,1.223-0.352,1.698
			c-0.234,0.477-0.547,0.867-0.938,1.172s-0.832,0.526-1.324,0.667s-0.997,0.211-1.512,0.211s-1.02-0.07-1.512-0.211
			s-0.934-0.363-1.324-0.668s-0.703-0.695-0.938-1.172s-0.352-1.043-0.352-1.699v-9.375h3v9.375c0,0.563,0.117,0.953,0.352,1.172
			s0.492,0.328,0.773,0.328s0.539-0.109,0.774-0.328c0.234-0.219,0.352-0.609,0.352-1.172c0-2.015-0.1-3.783-0.295-5.307
			c-0.198-1.522-0.446-2.865-0.745-4.029s-0.61-2.189-0.933-3.078c-0.323-0.889-0.618-1.699-0.885-2.434
			c-0.263-0.719-0.559-1.533-0.89-2.443s-0.602-1.951-0.813-3.123s-0.379-2.488-0.504-3.949s-0.188-3.09-0.188-4.887
			c0-0.656,0.117-1.219,0.352-1.688s0.547-0.855,0.938-1.16s0.832-0.531,1.324-0.68s0.996-0.223,1.512-0.223s1.02,0.074,1.512,0.223
			s0.934,0.375,1.324,0.68s0.703,0.691,0.938,1.16s0.352,1.031,0.352,1.688V125.063z"/>
	</g>
	<g>
		<g>
			<g>
				<path fill="#FFFFFF" d="M200.679,90c2.503,0.623,4.204,1,7.2,1c14.163,0,85.092,0,85.092,0s66.276,0,79.509,0
					c2.997,0,4.697-0.377,7.2-1c-2.503-0.623-4.203-1-7.2-1c-13.233,0-79.509,0-79.509,0s-70.929,0-85.092,0
					C204.882,89,203.182,89.377,200.679,90z"/>
			</g>
		</g>
	</g>
</g>
</svg>
