<?xml version="1.0" encoding="utf-8"?>
<!-- Generator: Adobe Illustrator 16.0.0, SVG Export Plug-In . SVG Version: 6.00 Build 0)  -->
<!DOCTYPE svg PUBLIC "-//W3C//DTD SVG 1.1//EN" "http://www.w3.org/Graphics/SVG/1.1/DTD/svg11.dtd">
<svg version="1.1" id="Layer_1" xmlns="http://www.w3.org/2000/svg" xmlns:xlink="http://www.w3.org/1999/xlink" x="0px" y="0px"
	 width="226.791px" height="28.504px" viewBox="0 0 226.791 28.504" enable-background="new 0 0 226.791 28.504"
	 xml:space="preserve">
<g display="none">
	<g display="inline">
		<path fill="#F2F2F2" d="M66.071,0.475h-3.117v10.382h-0.646V0.475h-3.135v-0.68h6.898V0.475z"/>
		<path fill="#F2F2F2" d="M74.925,5.322c0,0.855-0.103,1.63-0.307,2.326c-0.205,0.695-0.494,1.289-0.865,1.782
			c-0.372,0.492-0.818,0.873-1.339,1.141c-0.521,0.27-1.094,0.403-1.721,0.403c-0.627,0-1.2-0.134-1.718-0.403
			c-0.518-0.268-0.963-0.648-1.335-1.141c-0.372-0.493-0.661-1.087-0.865-1.782c-0.205-0.696-0.307-1.471-0.307-2.326
			c0-0.85,0.102-1.622,0.307-2.317c0.205-0.696,0.493-1.29,0.865-1.782s0.817-0.874,1.335-1.146
			c0.519-0.271,1.091-0.406,1.718-0.406c0.627,0,1.201,0.134,1.721,0.402c0.521,0.269,0.967,0.65,1.339,1.146
			c0.372,0.495,0.661,1.09,0.865,1.786C74.823,3.7,74.925,4.472,74.925,5.322z M74.261,5.322c0-0.771-0.085-1.464-0.257-2.079
			c-0.171-0.614-0.414-1.136-0.727-1.563c-0.314-0.428-0.69-0.754-1.129-0.98c-0.439-0.228-0.924-0.341-1.455-0.341
			c-0.526,0-1.009,0.113-1.448,0.341c-0.439,0.227-0.816,0.553-1.132,0.98c-0.316,0.428-0.561,0.949-0.734,1.563
			c-0.173,0.615-0.26,1.308-0.26,2.079c0,0.777,0.087,1.471,0.26,2.084c0.173,0.612,0.418,1.132,0.734,1.559
			c0.315,0.428,0.693,0.754,1.132,0.978c0.439,0.225,0.922,0.337,1.448,0.337c0.531,0,1.016-0.112,1.455-0.337
			c0.439-0.224,0.815-0.55,1.129-0.978c0.313-0.427,0.556-0.946,0.727-1.559C74.175,6.792,74.261,6.099,74.261,5.322z"/>
		<path fill="#F2F2F2" d="M85.736-0.205v11.062h-0.558V1.429c0-0.136,0.006-0.278,0.018-0.43l-3.492,7.73
			c-0.059,0.137-0.143,0.203-0.251,0.203h-0.101c-0.109,0-0.192-0.066-0.251-0.203l-3.586-7.746
			c0.013,0.155,0.019,0.304,0.019,0.445v9.428H76.97V-0.205h0.445c0.059,0,0.104,0.008,0.138,0.023
			c0.033,0.016,0.067,0.058,0.101,0.125l3.58,7.692c0.063,0.146,0.117,0.303,0.163,0.469c0.025-0.083,0.053-0.165,0.082-0.246
			c0.03-0.081,0.061-0.157,0.094-0.23l3.48-7.685c0.034-0.067,0.068-0.109,0.104-0.125c0.036-0.016,0.083-0.023,0.142-0.023H85.736z
			"/>
		<path fill="#F2F2F2" d="M95.104,10.857h-0.495c-0.059,0-0.107-0.021-0.145-0.059c-0.038-0.04-0.067-0.09-0.088-0.152l-1.041-3.213
			h-4.358l-1.041,3.213c-0.017,0.057-0.046,0.106-0.088,0.148c-0.042,0.041-0.092,0.063-0.15,0.063h-0.489L90.84-0.205h0.633
			L95.104,10.857z M93.142,6.838L91.336,1.25c-0.063-0.183-0.124-0.401-0.182-0.657c-0.026,0.125-0.053,0.244-0.082,0.355
			c-0.03,0.112-0.061,0.216-0.094,0.309l-1.807,5.582H93.142z"/>
		<path fill="#F2F2F2" d="M100.886,1.139c-0.038,0.089-0.092,0.134-0.163,0.134c-0.055,0-0.124-0.049-0.21-0.145
			c-0.086-0.097-0.202-0.203-0.348-0.32c-0.146-0.118-0.329-0.226-0.548-0.325c-0.22-0.099-0.491-0.148-0.813-0.148
			s-0.605,0.058-0.849,0.173c-0.245,0.114-0.45,0.271-0.615,0.468c-0.166,0.198-0.291,0.428-0.376,0.688s-0.129,0.534-0.129,0.821
			c0,0.374,0.064,0.685,0.191,0.93c0.127,0.245,0.296,0.453,0.505,0.626c0.209,0.172,0.447,0.316,0.712,0.434
			s0.538,0.233,0.818,0.348c0.28,0.114,0.552,0.241,0.818,0.379c0.265,0.139,0.502,0.312,0.712,0.52
			c0.208,0.209,0.377,0.466,0.504,0.771s0.191,0.684,0.191,1.138c0,0.463-0.064,0.9-0.191,1.309
			c-0.127,0.409-0.313,0.766-0.555,1.067c-0.243,0.303-0.54,0.541-0.891,0.716c-0.351,0.174-0.752,0.262-1.204,0.262
			c-0.585,0-1.089-0.129-1.511-0.388c-0.423-0.257-0.792-0.61-1.11-1.059l0.176-0.344c0.05-0.078,0.108-0.117,0.176-0.117
			c0.037,0,0.085,0.03,0.144,0.094c0.059,0.062,0.129,0.139,0.213,0.229c0.084,0.093,0.184,0.19,0.301,0.298
			c0.117,0.106,0.253,0.206,0.408,0.297c0.155,0.092,0.333,0.168,0.533,0.23s0.428,0.094,0.683,0.094
			c0.351,0,0.665-0.066,0.94-0.199c0.276-0.133,0.509-0.313,0.699-0.543c0.19-0.229,0.336-0.502,0.436-0.817
			c0.101-0.315,0.15-0.652,0.15-1.013c0-0.39-0.064-0.712-0.191-0.965c-0.128-0.252-0.296-0.463-0.505-0.634
			c-0.208-0.169-0.446-0.311-0.711-0.426c-0.266-0.113-0.538-0.227-0.818-0.336c-0.28-0.109-0.553-0.231-0.818-0.367
			c-0.266-0.135-0.502-0.309-0.712-0.52c-0.208-0.211-0.377-0.475-0.504-0.789c-0.128-0.316-0.191-0.71-0.191-1.185
			c0-0.37,0.056-0.728,0.169-1.071c0.112-0.344,0.278-0.647,0.496-0.911c0.217-0.264,0.486-0.474,0.805-0.633
			c0.32-0.158,0.685-0.238,1.095-0.238c0.46,0,0.872,0.091,1.238,0.273c0.366,0.183,0.699,0.461,1,0.837L100.886,1.139z"/>
		<path fill="#F2F2F2" d="M111,1.139c-0.038,0.089-0.092,0.134-0.163,0.134c-0.054,0-0.124-0.049-0.209-0.145
			c-0.086-0.097-0.202-0.203-0.349-0.32c-0.146-0.118-0.329-0.226-0.548-0.325c-0.219-0.099-0.49-0.148-0.812-0.148
			s-0.605,0.058-0.85,0.173c-0.245,0.114-0.45,0.271-0.615,0.468c-0.166,0.198-0.291,0.428-0.376,0.688
			c-0.086,0.261-0.129,0.534-0.129,0.821c0,0.374,0.064,0.685,0.191,0.93s0.296,0.453,0.504,0.626
			c0.209,0.172,0.447,0.316,0.712,0.434c0.266,0.117,0.539,0.233,0.818,0.348c0.28,0.114,0.553,0.241,0.818,0.379
			c0.266,0.139,0.503,0.312,0.712,0.52c0.209,0.209,0.377,0.466,0.505,0.771c0.127,0.305,0.191,0.684,0.191,1.138
			c0,0.463-0.063,0.9-0.191,1.309c-0.128,0.409-0.313,0.766-0.555,1.067c-0.242,0.303-0.539,0.541-0.891,0.716
			c-0.351,0.174-0.752,0.262-1.204,0.262c-0.585,0-1.089-0.129-1.511-0.388c-0.422-0.257-0.792-0.61-1.11-1.059l0.175-0.344
			c0.05-0.078,0.109-0.117,0.176-0.117c0.037,0,0.086,0.03,0.144,0.094c0.059,0.062,0.129,0.139,0.213,0.229
			c0.084,0.093,0.185,0.19,0.301,0.298c0.117,0.106,0.253,0.206,0.408,0.297c0.155,0.092,0.333,0.168,0.533,0.23
			s0.428,0.094,0.684,0.094c0.351,0,0.665-0.066,0.94-0.199s0.509-0.313,0.699-0.543c0.19-0.229,0.335-0.502,0.436-0.817
			c0.1-0.315,0.15-0.652,0.15-1.013c0-0.39-0.063-0.712-0.191-0.965c-0.128-0.252-0.296-0.463-0.505-0.634
			c-0.209-0.169-0.446-0.311-0.711-0.426c-0.266-0.113-0.539-0.227-0.818-0.336c-0.28-0.109-0.553-0.231-0.818-0.367
			c-0.266-0.135-0.503-0.309-0.712-0.52s-0.377-0.475-0.505-0.789c-0.128-0.316-0.191-0.71-0.191-1.185
			c0-0.37,0.057-0.728,0.169-1.071s0.278-0.647,0.496-0.911c0.217-0.264,0.486-0.474,0.806-0.633
			c0.32-0.158,0.685-0.238,1.094-0.238c0.46,0,0.873,0.091,1.239,0.273c0.365,0.183,0.699,0.461,1,0.837L111,1.139z"/>
		<path fill="#F2F2F2" d="M119.804,8.996c0.042,0,0.078,0.019,0.106,0.055l0.251,0.337c-0.184,0.244-0.383,0.465-0.599,0.66
			s-0.452,0.362-0.708,0.501c-0.257,0.138-0.539,0.245-0.847,0.32c-0.307,0.075-0.645,0.113-1.013,0.113
			c-0.614,0-1.178-0.135-1.689-0.403c-0.512-0.268-0.952-0.648-1.32-1.141c-0.368-0.492-0.653-1.088-0.856-1.786
			c-0.203-0.699-0.304-1.475-0.304-2.33c0-0.839,0.104-1.605,0.313-2.299c0.209-0.692,0.502-1.288,0.878-1.785
			c0.376-0.498,0.828-0.884,1.355-1.157s1.108-0.41,1.743-0.41c0.607,0,1.144,0.117,1.612,0.352
			c0.468,0.234,0.895,0.565,1.279,0.992l-0.194,0.353c-0.033,0.063-0.086,0.094-0.156,0.094c-0.051,0-0.132-0.058-0.245-0.173
			c-0.113-0.114-0.27-0.24-0.47-0.378c-0.201-0.139-0.451-0.265-0.75-0.38s-0.657-0.172-1.076-0.172
			c-0.535,0-1.025,0.115-1.47,0.345c-0.445,0.229-0.828,0.558-1.147,0.984c-0.32,0.428-0.569,0.948-0.749,1.563
			c-0.18,0.614-0.27,1.306-0.27,2.071c0,0.782,0.091,1.48,0.273,2.095c0.182,0.615,0.432,1.135,0.75,1.561
			c0.317,0.425,0.692,0.75,1.125,0.977c0.433,0.227,0.9,0.34,1.401,0.34c0.318,0,0.601-0.026,0.85-0.078
			c0.249-0.052,0.477-0.13,0.686-0.234c0.209-0.104,0.403-0.232,0.583-0.383c0.18-0.151,0.357-0.328,0.533-0.532
			c0.021-0.021,0.042-0.037,0.063-0.05C119.763,9.002,119.783,8.996,119.804,8.996z"/>
		<path fill="#F2F2F2" d="M128.727-0.205v11.062h-0.646V5.556h-5.556v5.301h-0.646V-0.205h0.646v5.159h5.556v-5.159H128.727z"/>
		<path fill="#F2F2F2" d="M136.196,10.176v0.681h-4.847V-0.205h0.646v10.381H136.196z"/>
		<path fill="#F2F2F2" d="M143.024,10.192l-0.012,0.665h-5.317V-0.205h5.317v0.664h-4.672v4.472h3.888v0.649h-3.888v4.611H143.024z"
			/>
		<path fill="#F2F2F2" d="M147.264-0.205c1.041,0,1.826,0.284,2.354,0.852c0.529,0.568,0.793,1.379,0.793,2.432
			c0,0.484-0.073,0.931-0.22,1.337c-0.146,0.406-0.355,0.757-0.627,1.051c-0.272,0.295-0.602,0.524-0.991,0.688
			c-0.389,0.164-0.826,0.246-1.311,0.246h-1.649v4.456h-0.646V-0.205H147.264z M147.264,5.759c0.389,0,0.738-0.067,1.047-0.203
			c0.309-0.135,0.571-0.323,0.787-0.563c0.215-0.24,0.38-0.522,0.496-0.848c0.115-0.326,0.172-0.682,0.172-1.067
			c0-0.85-0.209-1.504-0.627-1.962c-0.418-0.459-1.042-0.688-1.875-0.688h-1.649v5.331H147.264z"/>
		<path fill="#F2F2F2" d="M157.547,10.192l-0.012,0.665h-5.317V-0.205h5.317v0.664h-4.672v4.472h3.888v0.649h-3.888v4.611H157.547z"
			/>
		<path fill="#F2F2F2" d="M165.612,10.857h-0.552c-0.071,0-0.13-0.015-0.179-0.044c-0.048-0.028-0.093-0.082-0.134-0.159
			l-2.847-4.488c-0.034-0.057-0.068-0.106-0.104-0.147c-0.036-0.042-0.075-0.075-0.119-0.098c-0.044-0.024-0.096-0.041-0.157-0.052
			c-0.061-0.01-0.135-0.015-0.223-0.015h-1.16v5.003h-0.646V-0.205h2.27c1.02,0,1.785,0.246,2.292,0.738
			c0.507,0.493,0.762,1.215,0.762,2.17c0,0.422-0.059,0.808-0.176,1.156c-0.117,0.35-0.285,0.656-0.505,0.919
			c-0.219,0.264-0.484,0.479-0.796,0.645c-0.311,0.167-0.662,0.279-1.05,0.336c0.1,0.078,0.19,0.183,0.269,0.313L165.612,10.857z
			 M161.674,5.259c0.393,0,0.745-0.059,1.057-0.176c0.311-0.117,0.574-0.285,0.79-0.504c0.215-0.219,0.379-0.482,0.492-0.79
			s0.169-0.653,0.169-1.04c0-0.786-0.206-1.37-0.617-1.75c-0.412-0.381-1.013-0.571-1.803-0.571h-1.624v4.831H161.674z"/>
		<path fill="#F2F2F2" d="M171.412,1.139c-0.038,0.089-0.092,0.134-0.163,0.134c-0.055,0-0.125-0.049-0.21-0.145
			c-0.086-0.097-0.202-0.203-0.348-0.32c-0.146-0.118-0.329-0.226-0.548-0.325c-0.22-0.099-0.491-0.148-0.813-0.148
			s-0.605,0.058-0.849,0.173c-0.245,0.114-0.45,0.271-0.615,0.468c-0.166,0.198-0.291,0.428-0.376,0.688s-0.129,0.534-0.129,0.821
			c0,0.374,0.064,0.685,0.191,0.93c0.127,0.245,0.296,0.453,0.505,0.626c0.209,0.172,0.447,0.316,0.712,0.434
			s0.538,0.233,0.818,0.348c0.28,0.114,0.552,0.241,0.818,0.379c0.265,0.139,0.502,0.312,0.712,0.52
			c0.208,0.209,0.377,0.466,0.504,0.771s0.191,0.684,0.191,1.138c0,0.463-0.064,0.9-0.191,1.309
			c-0.127,0.409-0.313,0.766-0.555,1.067c-0.243,0.303-0.54,0.541-0.891,0.716c-0.351,0.174-0.752,0.262-1.204,0.262
			c-0.585,0-1.089-0.129-1.511-0.388c-0.423-0.257-0.792-0.61-1.11-1.059l0.176-0.344c0.05-0.078,0.108-0.117,0.176-0.117
			c0.037,0,0.085,0.03,0.144,0.094c0.059,0.062,0.129,0.139,0.213,0.229c0.084,0.093,0.184,0.19,0.301,0.298
			c0.117,0.106,0.253,0.206,0.408,0.297c0.155,0.092,0.333,0.168,0.533,0.23s0.428,0.094,0.683,0.094
			c0.351,0,0.665-0.066,0.94-0.199c0.276-0.133,0.509-0.313,0.699-0.543c0.19-0.229,0.336-0.502,0.436-0.817
			c0.101-0.315,0.15-0.652,0.15-1.013c0-0.39-0.064-0.712-0.191-0.965c-0.128-0.252-0.296-0.463-0.505-0.634
			c-0.208-0.169-0.446-0.311-0.711-0.426c-0.266-0.113-0.538-0.227-0.818-0.336c-0.28-0.109-0.553-0.231-0.818-0.367
			c-0.266-0.135-0.502-0.309-0.712-0.52c-0.208-0.211-0.377-0.475-0.504-0.789c-0.128-0.316-0.192-0.71-0.192-1.185
			c0-0.37,0.057-0.728,0.17-1.071c0.112-0.344,0.278-0.647,0.496-0.911c0.217-0.264,0.486-0.474,0.805-0.633
			c0.32-0.158,0.685-0.238,1.095-0.238c0.459,0,0.872,0.091,1.238,0.273c0.366,0.183,0.699,0.461,1,0.837L171.412,1.139z"/>
		<path fill="#F2F2F2" d="M36.903,18.556l-2.79,11.062h-0.577l-2.621-9.6c-0.034-0.13-0.063-0.266-0.088-0.407
			c-0.025,0.142-0.054,0.277-0.087,0.407l-2.628,9.6h-0.57l-2.796-11.062h0.532c0.122,0,0.199,0.07,0.232,0.211l2.239,9.092
			c0.046,0.208,0.088,0.445,0.125,0.711c0.021-0.136,0.042-0.262,0.063-0.379c0.021-0.117,0.045-0.228,0.075-0.332l2.508-9.092
			c0.017-0.057,0.046-0.107,0.088-0.147c0.042-0.042,0.092-0.063,0.15-0.063h0.176c0.058,0,0.106,0.02,0.144,0.059
			c0.038,0.039,0.067,0.09,0.088,0.152l2.508,9.092c0.029,0.1,0.055,0.208,0.079,0.328c0.023,0.12,0.045,0.245,0.065,0.375
			c0.021-0.13,0.041-0.254,0.06-0.371c0.019-0.117,0.039-0.228,0.06-0.332l2.239-9.092c0.013-0.057,0.041-0.107,0.084-0.147
			c0.044-0.042,0.095-0.063,0.154-0.063H36.903z"/>
		<path fill="#F2F2F2" d="M43.845,28.954l-0.012,0.664h-5.317V18.556h5.317v0.665h-4.671v4.472h3.888v0.648h-3.888v4.612H43.845z"/>
		<path fill="#F2F2F2" d="M48.341,18.556c0.506,0,0.945,0.063,1.317,0.188c0.373,0.125,0.679,0.31,0.922,0.552
			c0.242,0.242,0.422,0.538,0.539,0.887c0.117,0.35,0.176,0.745,0.176,1.188c0,0.292-0.041,0.573-0.122,0.844
			s-0.199,0.521-0.351,0.751c-0.153,0.229-0.341,0.429-0.564,0.598c-0.224,0.17-0.48,0.299-0.768,0.387
			c0.698,0.126,1.234,0.414,1.608,0.864c0.375,0.451,0.562,1.043,0.562,1.778c0,0.469-0.067,0.892-0.201,1.267
			c-0.133,0.375-0.328,0.693-0.583,0.953c-0.255,0.261-0.568,0.46-0.941,0.599c-0.372,0.139-0.794,0.207-1.266,0.207h-2.878V18.556
			H48.341z M46.435,19.19v4.541h1.918c0.41,0,0.76-0.064,1.051-0.195c0.29-0.131,0.528-0.302,0.714-0.516
			c0.187-0.214,0.323-0.456,0.411-0.728c0.087-0.271,0.132-0.55,0.132-0.836c0-0.745-0.189-1.31-0.568-1.692
			s-0.962-0.574-1.753-0.574H46.435z M48.661,28.976c0.778,0,1.366-0.209,1.766-0.629c0.399-0.419,0.599-1.01,0.599-1.771
			c0-0.349-0.053-0.663-0.16-0.942c-0.107-0.278-0.26-0.516-0.461-0.711s-0.448-0.345-0.74-0.449
			c-0.293-0.104-0.625-0.156-0.997-0.156h-2.232v4.658H48.661z"/>
		<path fill="#F2F2F2" d="M63.454,29.618h-0.495c-0.059,0-0.107-0.02-0.145-0.059s-0.067-0.09-0.087-0.153l-1.041-3.212h-4.358
			l-1.041,3.212c-0.017,0.058-0.046,0.107-0.088,0.149c-0.042,0.041-0.091,0.063-0.15,0.063h-0.489l3.631-11.062h0.633
			L63.454,29.618z M61.491,25.599l-1.806-5.589c-0.063-0.183-0.124-0.401-0.182-0.656c-0.025,0.125-0.052,0.244-0.082,0.355
			c-0.029,0.112-0.061,0.215-0.094,0.309l-1.806,5.581H61.491z"/>
		<path fill="#F2F2F2" d="M67.223,18.556c1.041,0,1.825,0.284,2.354,0.853c0.529,0.567,0.793,1.379,0.793,2.431
			c0,0.484-0.073,0.931-0.22,1.337c-0.146,0.406-0.355,0.757-0.627,1.051c-0.271,0.295-0.602,0.524-0.991,0.688
			c-0.389,0.164-0.826,0.246-1.31,0.246h-1.649v4.456h-0.646V18.556H67.223z M67.223,24.521c0.388,0,0.737-0.067,1.047-0.203
			c0.309-0.136,0.571-0.323,0.787-0.563c0.215-0.239,0.38-0.521,0.496-0.848c0.115-0.325,0.172-0.682,0.172-1.067
			c0-0.85-0.209-1.504-0.627-1.962c-0.418-0.459-1.043-0.688-1.875-0.688h-1.649v5.331H67.223z"/>
		<path fill="#F2F2F2" d="M74.472,18.556c1.041,0,1.825,0.284,2.354,0.853c0.529,0.567,0.793,1.379,0.793,2.431
			c0,0.484-0.073,0.931-0.22,1.337c-0.146,0.406-0.355,0.757-0.627,1.051c-0.271,0.295-0.602,0.524-0.991,0.688
			c-0.389,0.164-0.826,0.246-1.31,0.246h-1.65v4.456h-0.646V18.556H74.472z M74.472,24.521c0.388,0,0.737-0.067,1.047-0.203
			c0.309-0.136,0.571-0.323,0.787-0.563c0.215-0.239,0.38-0.521,0.496-0.848c0.115-0.325,0.172-0.682,0.172-1.067
			c0-0.85-0.209-1.504-0.627-1.962c-0.418-0.459-1.042-0.688-1.874-0.688h-1.65v5.331H74.472z"/>
		<path fill="#F2F2F2" d="M84.272,28.938v0.68h-4.847V18.556h0.646v10.382H84.272z"/>
		<path fill="#F2F2F2" d="M86.417,29.618h-0.646V18.556h0.646V29.618z"/>
		<path fill="#F2F2F2" d="M95.44,27.756c0.042,0,0.077,0.019,0.106,0.056l0.251,0.336c-0.184,0.245-0.383,0.465-0.599,0.66
			c-0.215,0.195-0.452,0.362-0.708,0.501c-0.257,0.138-0.54,0.245-0.847,0.319c-0.307,0.076-0.645,0.114-1.013,0.114
			c-0.614,0-1.178-0.134-1.689-0.402c-0.513-0.269-0.953-0.649-1.32-1.142c-0.368-0.492-0.653-1.088-0.856-1.786
			s-0.304-1.475-0.304-2.33c0-0.838,0.104-1.604,0.313-2.298c0.209-0.693,0.502-1.288,0.878-1.785
			c0.376-0.499,0.828-0.885,1.354-1.157c0.527-0.274,1.108-0.411,1.743-0.411c0.606,0,1.144,0.117,1.612,0.353
			c0.468,0.233,0.895,0.565,1.279,0.992l-0.195,0.352c-0.033,0.063-0.085,0.095-0.156,0.095c-0.05,0-0.132-0.058-0.245-0.173
			c-0.112-0.115-0.269-0.24-0.47-0.379c-0.201-0.138-0.451-0.265-0.75-0.379c-0.299-0.115-0.658-0.173-1.076-0.173
			c-0.535,0-1.025,0.115-1.47,0.344c-0.445,0.229-0.828,0.559-1.148,0.985c-0.32,0.428-0.569,0.949-0.749,1.563
			c-0.18,0.615-0.27,1.306-0.27,2.071c0,0.782,0.091,1.48,0.272,2.095c0.182,0.616,0.432,1.136,0.75,1.561
			c0.317,0.425,0.692,0.75,1.125,0.978c0.433,0.226,0.9,0.34,1.402,0.34c0.317,0,0.601-0.026,0.85-0.079
			c0.249-0.051,0.477-0.129,0.687-0.234c0.209-0.104,0.403-0.231,0.583-0.382c0.18-0.152,0.357-0.328,0.533-0.532
			c0.021-0.021,0.042-0.038,0.063-0.052C95.398,27.763,95.419,27.756,95.44,27.756z"/>
		<path fill="#F2F2F2" d="M104.263,29.618h-0.495c-0.059,0-0.107-0.02-0.145-0.059c-0.038-0.039-0.066-0.09-0.087-0.153
			l-1.041-3.212h-4.358l-1.041,3.212c-0.017,0.058-0.046,0.107-0.088,0.149c-0.042,0.041-0.092,0.063-0.15,0.063h-0.489
			l3.631-11.062h0.633L104.263,29.618z M102.3,25.599l-1.806-5.589c-0.063-0.183-0.124-0.401-0.182-0.656
			c-0.025,0.125-0.052,0.244-0.081,0.355c-0.03,0.112-0.062,0.215-0.094,0.309l-1.807,5.581H102.3z"/>
		<path fill="#F2F2F2" d="M110.627,19.237h-3.117v10.381h-0.646V19.237h-3.136v-0.681h6.898V19.237z"/>
		<path fill="#F2F2F2" d="M112.766,29.618h-0.646V18.556h0.646V29.618z"/>
		<path fill="#F2F2F2" d="M123.269,24.083c0,0.855-0.102,1.63-0.307,2.326c-0.205,0.695-0.493,1.29-0.865,1.782
			c-0.372,0.493-0.818,0.873-1.339,1.141c-0.521,0.27-1.094,0.403-1.722,0.403c-0.626,0-1.2-0.134-1.718-0.403
			c-0.519-0.268-0.964-0.647-1.336-1.141c-0.372-0.492-0.661-1.087-0.865-1.782c-0.205-0.696-0.307-1.471-0.307-2.326
			c0-0.849,0.103-1.621,0.307-2.317c0.205-0.695,0.494-1.29,0.865-1.782c0.372-0.492,0.817-0.874,1.336-1.146
			c0.518-0.271,1.091-0.406,1.718-0.406c0.627,0,1.201,0.135,1.722,0.403c0.521,0.268,0.967,0.649,1.339,1.145
			s0.661,1.091,0.865,1.786C123.167,22.461,123.269,23.234,123.269,24.083z M122.604,24.083c0-0.771-0.085-1.464-0.257-2.079
			c-0.172-0.615-0.414-1.136-0.728-1.563c-0.313-0.427-0.69-0.754-1.129-0.98c-0.439-0.228-0.924-0.341-1.455-0.341
			c-0.526,0-1.009,0.113-1.448,0.341c-0.439,0.227-0.816,0.554-1.132,0.98c-0.316,0.428-0.56,0.948-0.734,1.563
			c-0.173,0.615-0.26,1.309-0.26,2.079c0,0.777,0.087,1.471,0.26,2.084c0.174,0.612,0.418,1.132,0.734,1.56
			c0.316,0.427,0.693,0.753,1.132,0.977c0.439,0.225,0.922,0.337,1.448,0.337c0.531,0,1.016-0.112,1.455-0.337
			c0.439-0.224,0.815-0.55,1.129-0.977c0.313-0.428,0.556-0.947,0.728-1.56C122.519,25.553,122.604,24.86,122.604,24.083z"/>
		<path fill="#F2F2F2" d="M132.161,18.556v11.062h-0.301c-0.054,0-0.099-0.012-0.134-0.035c-0.036-0.023-0.07-0.064-0.104-0.121
			l-5.763-9.6c0.013,0.156,0.019,0.305,0.019,0.445v9.311h-0.564V18.556h0.32c0.058,0,0.104,0.01,0.135,0.027
			c0.031,0.019,0.066,0.059,0.104,0.121l5.75,9.576c-0.012-0.156-0.019-0.305-0.019-0.446v-9.278H132.161z"/>
		<path fill="#F2F2F2" d="M145.662,24.083c0,0.855-0.102,1.624-0.307,2.307s-0.493,1.264-0.865,1.743
			c-0.373,0.479-0.818,0.848-1.339,1.103s-1.094,0.383-1.721,0.383h-3.242V18.556h3.242c0.627,0,1.201,0.128,1.721,0.384
			c0.521,0.255,0.966,0.622,1.339,1.102c0.372,0.479,0.66,1.061,0.865,1.743S145.662,23.234,145.662,24.083z M144.997,24.083
			c0-0.771-0.086-1.459-0.257-2.063c-0.172-0.604-0.414-1.115-0.728-1.531c-0.313-0.418-0.689-0.735-1.128-0.955
			c-0.439-0.219-0.924-0.328-1.455-0.328h-2.596v9.765h2.596c0.53,0,1.016-0.11,1.455-0.328c0.439-0.22,0.815-0.538,1.128-0.954
			c0.314-0.417,0.556-0.928,0.728-1.532C144.911,25.55,144.997,24.86,144.997,24.083z"/>
		<path fill="#F2F2F2" d="M153.048,28.954l-0.012,0.664h-5.317V18.556h5.317v0.665h-4.672v4.472h3.888v0.648h-3.888v4.612H153.048z"
			/>
		<path fill="#F2F2F2" d="M161.739,18.556l-3.662,11.062h-0.571l-3.662-11.062h0.508c0.058,0,0.106,0.02,0.144,0.059
			s0.067,0.09,0.087,0.152l3.023,9.178c0.033,0.114,0.067,0.237,0.101,0.367c0.033,0.131,0.064,0.264,0.094,0.398
			c0.025-0.135,0.052-0.268,0.081-0.398c0.03-0.13,0.063-0.253,0.101-0.367L161,18.767c0.017-0.057,0.046-0.107,0.088-0.147
			c0.042-0.042,0.091-0.063,0.15-0.063H161.739z"/>
		<path fill="#F2F2F2" d="M168.543,28.954l-0.012,0.664h-5.317V18.556h5.317v0.665h-4.672v4.472h3.888v0.648h-3.888v4.612H168.543z"
			/>
		<path fill="#F2F2F2" d="M175.334,28.938v0.68h-4.847V18.556h0.646v10.382H175.334z"/>
		<path fill="#F2F2F2" d="M184.176,24.083c0,0.855-0.102,1.63-0.307,2.326c-0.205,0.695-0.494,1.29-0.865,1.782
			c-0.373,0.493-0.818,0.873-1.339,1.141c-0.521,0.27-1.094,0.403-1.721,0.403c-0.627,0-1.2-0.134-1.718-0.403
			c-0.519-0.268-0.963-0.647-1.336-1.141c-0.372-0.492-0.66-1.087-0.865-1.782c-0.205-0.696-0.307-1.471-0.307-2.326
			c0-0.849,0.103-1.621,0.307-2.317c0.205-0.695,0.494-1.29,0.865-1.782c0.373-0.492,0.817-0.874,1.336-1.146
			c0.519-0.271,1.091-0.406,1.718-0.406c0.627,0,1.201,0.135,1.721,0.403c0.521,0.268,0.967,0.649,1.339,1.145
			c0.372,0.495,0.66,1.091,0.865,1.786C184.074,22.461,184.176,23.234,184.176,24.083z M183.511,24.083
			c0-0.771-0.085-1.464-0.257-2.079c-0.172-0.615-0.414-1.136-0.728-1.563c-0.313-0.427-0.69-0.754-1.129-0.98
			c-0.439-0.228-0.924-0.341-1.455-0.341c-0.527,0-1.009,0.113-1.448,0.341c-0.439,0.227-0.816,0.554-1.132,0.98
			c-0.315,0.428-0.56,0.948-0.734,1.563c-0.173,0.615-0.26,1.309-0.26,2.079c0,0.777,0.087,1.471,0.26,2.084
			c0.174,0.612,0.418,1.132,0.734,1.56c0.316,0.427,0.693,0.753,1.132,0.977c0.439,0.225,0.921,0.337,1.448,0.337
			c0.531,0,1.016-0.112,1.455-0.337c0.439-0.224,0.815-0.55,1.129-0.977c0.313-0.428,0.556-0.947,0.728-1.56
			C183.426,25.553,183.511,24.86,183.511,24.083z"/>
		<path fill="#F2F2F2" d="M188.516,18.556c1.041,0,1.826,0.284,2.354,0.853c0.529,0.567,0.793,1.379,0.793,2.431
			c0,0.484-0.073,0.931-0.219,1.337s-0.355,0.757-0.627,1.051c-0.272,0.295-0.602,0.524-0.991,0.688s-0.826,0.246-1.311,0.246
			h-1.649v4.456h-0.646V18.556H188.516z M188.516,24.521c0.389,0,0.737-0.067,1.047-0.203s0.572-0.323,0.787-0.563
			c0.215-0.239,0.38-0.521,0.495-0.848c0.115-0.325,0.173-0.682,0.173-1.067c0-0.85-0.209-1.504-0.627-1.962
			c-0.418-0.459-1.043-0.688-1.875-0.688h-1.649v5.331H188.516z"/>
		<path fill="#F2F2F2" d="M198.799,28.954l-0.012,0.664h-5.317V18.556h5.317v0.665h-4.672v4.472h3.888v0.648h-3.888v4.612H198.799z"
			/>
		<path fill="#F2F2F2" d="M206.864,29.618h-0.552c-0.071,0-0.13-0.014-0.179-0.043c-0.048-0.029-0.093-0.082-0.134-0.16
			l-2.847-4.487c-0.034-0.058-0.068-0.106-0.104-0.148s-0.075-0.074-0.119-0.098s-0.096-0.04-0.157-0.051s-0.135-0.016-0.223-0.016
			h-1.16v5.003h-0.646V18.556h2.27c1.02,0,1.784,0.247,2.292,0.739s0.762,1.215,0.762,2.17c0,0.421-0.058,0.808-0.175,1.156
			s-0.285,0.655-0.505,0.918c-0.219,0.264-0.485,0.479-0.796,0.646c-0.311,0.166-0.662,0.278-1.05,0.336
			c0.101,0.078,0.19,0.183,0.27,0.313L206.864,29.618z M202.926,24.021c0.393,0,0.745-0.059,1.057-0.177
			c0.311-0.117,0.574-0.285,0.79-0.504s0.379-0.481,0.493-0.789c0.113-0.308,0.169-0.654,0.169-1.04
			c0-0.787-0.206-1.371-0.617-1.751c-0.412-0.38-1.013-0.57-1.803-0.57h-1.624v4.831H202.926z"/>
	</g>
	<g display="inline">
		<path fill="#FFFFFF" d="M66.071,0.475h-3.117v10.382h-0.646V0.475h-3.135v-0.68h6.898V0.475z"/>
		<path fill="#FFFFFF" d="M74.925,5.322c0,0.855-0.103,1.63-0.307,2.326c-0.205,0.695-0.494,1.289-0.865,1.782
			c-0.372,0.492-0.818,0.873-1.339,1.141c-0.521,0.27-1.094,0.403-1.721,0.403c-0.627,0-1.2-0.134-1.718-0.403
			c-0.518-0.268-0.963-0.648-1.335-1.141c-0.372-0.493-0.661-1.087-0.865-1.782c-0.205-0.696-0.307-1.471-0.307-2.326
			c0-0.85,0.102-1.622,0.307-2.317c0.205-0.696,0.493-1.29,0.865-1.782s0.817-0.874,1.335-1.146
			c0.519-0.271,1.091-0.406,1.718-0.406c0.627,0,1.201,0.134,1.721,0.402c0.521,0.269,0.967,0.65,1.339,1.146
			c0.372,0.495,0.661,1.09,0.865,1.786C74.823,3.7,74.925,4.472,74.925,5.322z M74.261,5.322c0-0.771-0.085-1.464-0.257-2.079
			c-0.171-0.614-0.414-1.136-0.727-1.563c-0.314-0.428-0.69-0.754-1.129-0.98c-0.439-0.228-0.924-0.341-1.455-0.341
			c-0.526,0-1.009,0.113-1.448,0.341c-0.439,0.227-0.816,0.553-1.132,0.98c-0.316,0.428-0.561,0.949-0.734,1.563
			c-0.173,0.615-0.26,1.308-0.26,2.079c0,0.777,0.087,1.471,0.26,2.084c0.173,0.612,0.418,1.132,0.734,1.559
			c0.315,0.428,0.693,0.754,1.132,0.978c0.439,0.225,0.922,0.337,1.448,0.337c0.531,0,1.016-0.112,1.455-0.337
			c0.439-0.224,0.815-0.55,1.129-0.978c0.313-0.427,0.556-0.946,0.727-1.559C74.175,6.792,74.261,6.099,74.261,5.322z"/>
		<path fill="#FFFFFF" d="M85.736-0.205v11.062h-0.558V1.429c0-0.136,0.006-0.278,0.018-0.43l-3.492,7.73
			c-0.059,0.137-0.143,0.203-0.251,0.203h-0.101c-0.109,0-0.192-0.066-0.251-0.203l-3.586-7.746
			c0.013,0.155,0.019,0.304,0.019,0.445v9.428H76.97V-0.205h0.445c0.059,0,0.104,0.008,0.138,0.023
			c0.033,0.016,0.067,0.058,0.101,0.125l3.58,7.692c0.063,0.146,0.117,0.303,0.163,0.469c0.025-0.083,0.053-0.165,0.082-0.246
			c0.03-0.081,0.061-0.157,0.094-0.23l3.48-7.685c0.034-0.067,0.068-0.109,0.104-0.125c0.036-0.016,0.083-0.023,0.142-0.023H85.736z
			"/>
		<path fill="#FFFFFF" d="M95.104,10.857h-0.495c-0.059,0-0.107-0.021-0.145-0.059c-0.038-0.04-0.067-0.09-0.088-0.152l-1.041-3.213
			h-4.358l-1.041,3.213c-0.017,0.057-0.046,0.106-0.088,0.148c-0.042,0.041-0.092,0.063-0.15,0.063h-0.489L90.84-0.205h0.633
			L95.104,10.857z M93.142,6.838L91.336,1.25c-0.063-0.183-0.124-0.401-0.182-0.657c-0.026,0.125-0.053,0.244-0.082,0.355
			c-0.03,0.112-0.061,0.216-0.094,0.309l-1.807,5.582H93.142z"/>
		<path fill="#FFFFFF" d="M100.886,1.139c-0.038,0.089-0.092,0.134-0.163,0.134c-0.055,0-0.124-0.049-0.21-0.145
			c-0.086-0.097-0.202-0.203-0.348-0.32c-0.146-0.118-0.329-0.226-0.548-0.325c-0.22-0.099-0.491-0.148-0.813-0.148
			s-0.605,0.058-0.849,0.173c-0.245,0.114-0.45,0.271-0.615,0.468c-0.166,0.198-0.291,0.428-0.376,0.688s-0.129,0.534-0.129,0.821
			c0,0.374,0.064,0.685,0.191,0.93c0.127,0.245,0.296,0.453,0.505,0.626c0.209,0.172,0.447,0.316,0.712,0.434
			s0.538,0.233,0.818,0.348c0.28,0.114,0.552,0.241,0.818,0.379c0.265,0.139,0.502,0.312,0.712,0.52
			c0.208,0.209,0.377,0.466,0.504,0.771s0.191,0.684,0.191,1.138c0,0.463-0.064,0.9-0.191,1.309
			c-0.127,0.409-0.313,0.766-0.555,1.067c-0.243,0.303-0.54,0.541-0.891,0.716c-0.351,0.174-0.752,0.262-1.204,0.262
			c-0.585,0-1.089-0.129-1.511-0.388c-0.423-0.257-0.792-0.61-1.11-1.059l0.176-0.344c0.05-0.078,0.108-0.117,0.176-0.117
			c0.037,0,0.085,0.03,0.144,0.094c0.059,0.062,0.129,0.139,0.213,0.229c0.084,0.093,0.184,0.19,0.301,0.298
			c0.117,0.106,0.253,0.206,0.408,0.297c0.155,0.092,0.333,0.168,0.533,0.23s0.428,0.094,0.683,0.094
			c0.351,0,0.665-0.066,0.94-0.199c0.276-0.133,0.509-0.313,0.699-0.543c0.19-0.229,0.336-0.502,0.436-0.817
			c0.101-0.315,0.15-0.652,0.15-1.013c0-0.39-0.064-0.712-0.191-0.965c-0.128-0.252-0.296-0.463-0.505-0.634
			c-0.208-0.169-0.446-0.311-0.711-0.426c-0.266-0.113-0.538-0.227-0.818-0.336c-0.28-0.109-0.553-0.231-0.818-0.367
			c-0.266-0.135-0.502-0.309-0.712-0.52c-0.208-0.211-0.377-0.475-0.504-0.789c-0.128-0.316-0.191-0.71-0.191-1.185
			c0-0.37,0.056-0.728,0.169-1.071c0.112-0.344,0.278-0.647,0.496-0.911c0.217-0.264,0.486-0.474,0.805-0.633
			c0.32-0.158,0.685-0.238,1.095-0.238c0.46,0,0.872,0.091,1.238,0.273c0.366,0.183,0.699,0.461,1,0.837L100.886,1.139z"/>
		<path fill="#FFFFFF" d="M111,1.139c-0.038,0.089-0.092,0.134-0.163,0.134c-0.054,0-0.124-0.049-0.209-0.145
			c-0.086-0.097-0.202-0.203-0.349-0.32c-0.146-0.118-0.329-0.226-0.548-0.325c-0.219-0.099-0.49-0.148-0.812-0.148
			s-0.605,0.058-0.85,0.173c-0.245,0.114-0.45,0.271-0.615,0.468c-0.166,0.198-0.291,0.428-0.376,0.688
			c-0.086,0.261-0.129,0.534-0.129,0.821c0,0.374,0.064,0.685,0.191,0.93s0.296,0.453,0.504,0.626
			c0.209,0.172,0.447,0.316,0.712,0.434c0.266,0.117,0.539,0.233,0.818,0.348c0.28,0.114,0.553,0.241,0.818,0.379
			c0.266,0.139,0.503,0.312,0.712,0.52c0.209,0.209,0.377,0.466,0.505,0.771c0.127,0.305,0.191,0.684,0.191,1.138
			c0,0.463-0.063,0.9-0.191,1.309c-0.128,0.409-0.313,0.766-0.555,1.067c-0.242,0.303-0.539,0.541-0.891,0.716
			c-0.351,0.174-0.752,0.262-1.204,0.262c-0.585,0-1.089-0.129-1.511-0.388c-0.422-0.257-0.792-0.61-1.11-1.059l0.175-0.344
			c0.05-0.078,0.109-0.117,0.176-0.117c0.037,0,0.086,0.03,0.144,0.094c0.059,0.062,0.129,0.139,0.213,0.229
			c0.084,0.093,0.185,0.19,0.301,0.298c0.117,0.106,0.253,0.206,0.408,0.297c0.155,0.092,0.333,0.168,0.533,0.23
			s0.428,0.094,0.684,0.094c0.351,0,0.665-0.066,0.94-0.199s0.509-0.313,0.699-0.543c0.19-0.229,0.335-0.502,0.436-0.817
			c0.1-0.315,0.15-0.652,0.15-1.013c0-0.39-0.063-0.712-0.191-0.965c-0.128-0.252-0.296-0.463-0.505-0.634
			c-0.209-0.169-0.446-0.311-0.711-0.426c-0.266-0.113-0.539-0.227-0.818-0.336c-0.28-0.109-0.553-0.231-0.818-0.367
			c-0.266-0.135-0.503-0.309-0.712-0.52s-0.377-0.475-0.505-0.789c-0.128-0.316-0.191-0.71-0.191-1.185
			c0-0.37,0.057-0.728,0.169-1.071s0.278-0.647,0.496-0.911c0.217-0.264,0.486-0.474,0.806-0.633
			c0.32-0.158,0.685-0.238,1.094-0.238c0.46,0,0.873,0.091,1.239,0.273c0.365,0.183,0.699,0.461,1,0.837L111,1.139z"/>
		<path fill="#FFFFFF" d="M119.804,8.996c0.042,0,0.078,0.019,0.106,0.055l0.251,0.337c-0.184,0.244-0.383,0.465-0.599,0.66
			s-0.452,0.362-0.708,0.501c-0.257,0.138-0.539,0.245-0.847,0.32c-0.307,0.075-0.645,0.113-1.013,0.113
			c-0.614,0-1.178-0.135-1.689-0.403c-0.512-0.268-0.952-0.648-1.32-1.141c-0.368-0.492-0.653-1.088-0.856-1.786
			c-0.203-0.699-0.304-1.475-0.304-2.33c0-0.839,0.104-1.605,0.313-2.299c0.209-0.692,0.502-1.288,0.878-1.785
			c0.376-0.498,0.828-0.884,1.355-1.157s1.108-0.41,1.743-0.41c0.607,0,1.144,0.117,1.612,0.352
			c0.468,0.234,0.895,0.565,1.279,0.992l-0.194,0.353c-0.033,0.063-0.086,0.094-0.156,0.094c-0.051,0-0.132-0.058-0.245-0.173
			c-0.113-0.114-0.27-0.24-0.47-0.378c-0.201-0.139-0.451-0.265-0.75-0.38s-0.657-0.172-1.076-0.172
			c-0.535,0-1.025,0.115-1.47,0.345c-0.445,0.229-0.828,0.558-1.147,0.984c-0.32,0.428-0.569,0.948-0.749,1.563
			c-0.18,0.614-0.27,1.306-0.27,2.071c0,0.782,0.091,1.48,0.273,2.095c0.182,0.615,0.432,1.135,0.75,1.561
			c0.317,0.425,0.692,0.75,1.125,0.977c0.433,0.227,0.9,0.34,1.401,0.34c0.318,0,0.601-0.026,0.85-0.078
			c0.249-0.052,0.477-0.13,0.686-0.234c0.209-0.104,0.403-0.232,0.583-0.383c0.18-0.151,0.357-0.328,0.533-0.532
			c0.021-0.021,0.042-0.037,0.063-0.05C119.763,9.002,119.783,8.996,119.804,8.996z"/>
		<path fill="#FFFFFF" d="M128.727-0.205v11.062h-0.646V5.556h-5.556v5.301h-0.646V-0.205h0.646v5.159h5.556v-5.159H128.727z"/>
		<path fill="#FFFFFF" d="M136.196,10.176v0.681h-4.847V-0.205h0.646v10.381H136.196z"/>
		<path fill="#FFFFFF" d="M143.024,10.192l-0.012,0.665h-5.317V-0.205h5.317v0.664h-4.672v4.472h3.888v0.649h-3.888v4.611H143.024z"
			/>
		<path fill="#FFFFFF" d="M147.264-0.205c1.041,0,1.826,0.284,2.354,0.852c0.529,0.568,0.793,1.379,0.793,2.432
			c0,0.484-0.073,0.931-0.22,1.337c-0.146,0.406-0.355,0.757-0.627,1.051c-0.272,0.295-0.602,0.524-0.991,0.688
			c-0.389,0.164-0.826,0.246-1.311,0.246h-1.649v4.456h-0.646V-0.205H147.264z M147.264,5.759c0.389,0,0.738-0.067,1.047-0.203
			c0.309-0.135,0.571-0.323,0.787-0.563c0.215-0.24,0.38-0.522,0.496-0.848c0.115-0.326,0.172-0.682,0.172-1.067
			c0-0.85-0.209-1.504-0.627-1.962c-0.418-0.459-1.042-0.688-1.875-0.688h-1.649v5.331H147.264z"/>
		<path fill="#FFFFFF" d="M157.547,10.192l-0.012,0.665h-5.317V-0.205h5.317v0.664h-4.672v4.472h3.888v0.649h-3.888v4.611H157.547z"
			/>
		<path fill="#FFFFFF" d="M165.612,10.857h-0.552c-0.071,0-0.13-0.015-0.179-0.044c-0.048-0.028-0.093-0.082-0.134-0.159
			l-2.847-4.488c-0.034-0.057-0.068-0.106-0.104-0.147c-0.036-0.042-0.075-0.075-0.119-0.098c-0.044-0.024-0.096-0.041-0.157-0.052
			c-0.061-0.01-0.135-0.015-0.223-0.015h-1.16v5.003h-0.646V-0.205h2.27c1.02,0,1.785,0.246,2.292,0.738
			c0.507,0.493,0.762,1.215,0.762,2.17c0,0.422-0.059,0.808-0.176,1.156c-0.117,0.35-0.285,0.656-0.505,0.919
			c-0.219,0.264-0.484,0.479-0.796,0.645c-0.311,0.167-0.662,0.279-1.05,0.336c0.1,0.078,0.19,0.183,0.269,0.313L165.612,10.857z
			 M161.674,5.259c0.393,0,0.745-0.059,1.057-0.176c0.311-0.117,0.574-0.285,0.79-0.504c0.215-0.219,0.379-0.482,0.492-0.79
			s0.169-0.653,0.169-1.04c0-0.786-0.206-1.37-0.617-1.75c-0.412-0.381-1.013-0.571-1.803-0.571h-1.624v4.831H161.674z"/>
		<path fill="#FFFFFF" d="M171.412,1.139c-0.038,0.089-0.092,0.134-0.163,0.134c-0.055,0-0.125-0.049-0.21-0.145
			c-0.086-0.097-0.202-0.203-0.348-0.32c-0.146-0.118-0.329-0.226-0.548-0.325c-0.22-0.099-0.491-0.148-0.813-0.148
			s-0.605,0.058-0.849,0.173c-0.245,0.114-0.45,0.271-0.615,0.468c-0.166,0.198-0.291,0.428-0.376,0.688s-0.129,0.534-0.129,0.821
			c0,0.374,0.064,0.685,0.191,0.93c0.127,0.245,0.296,0.453,0.505,0.626c0.209,0.172,0.447,0.316,0.712,0.434
			s0.538,0.233,0.818,0.348c0.28,0.114,0.552,0.241,0.818,0.379c0.265,0.139,0.502,0.312,0.712,0.52
			c0.208,0.209,0.377,0.466,0.504,0.771s0.191,0.684,0.191,1.138c0,0.463-0.064,0.9-0.191,1.309
			c-0.127,0.409-0.313,0.766-0.555,1.067c-0.243,0.303-0.54,0.541-0.891,0.716c-0.351,0.174-0.752,0.262-1.204,0.262
			c-0.585,0-1.089-0.129-1.511-0.388c-0.423-0.257-0.792-0.61-1.11-1.059l0.176-0.344c0.05-0.078,0.108-0.117,0.176-0.117
			c0.037,0,0.085,0.03,0.144,0.094c0.059,0.062,0.129,0.139,0.213,0.229c0.084,0.093,0.184,0.19,0.301,0.298
			c0.117,0.106,0.253,0.206,0.408,0.297c0.155,0.092,0.333,0.168,0.533,0.23s0.428,0.094,0.683,0.094
			c0.351,0,0.665-0.066,0.94-0.199c0.276-0.133,0.509-0.313,0.699-0.543c0.19-0.229,0.336-0.502,0.436-0.817
			c0.101-0.315,0.15-0.652,0.15-1.013c0-0.39-0.064-0.712-0.191-0.965c-0.128-0.252-0.296-0.463-0.505-0.634
			c-0.208-0.169-0.446-0.311-0.711-0.426c-0.266-0.113-0.538-0.227-0.818-0.336c-0.28-0.109-0.553-0.231-0.818-0.367
			c-0.266-0.135-0.502-0.309-0.712-0.52c-0.208-0.211-0.377-0.475-0.504-0.789c-0.128-0.316-0.192-0.71-0.192-1.185
			c0-0.37,0.057-0.728,0.17-1.071c0.112-0.344,0.278-0.647,0.496-0.911c0.217-0.264,0.486-0.474,0.805-0.633
			c0.32-0.158,0.685-0.238,1.095-0.238c0.459,0,0.872,0.091,1.238,0.273c0.366,0.183,0.699,0.461,1,0.837L171.412,1.139z"/>
		<path fill="#FFFFFF" d="M36.903,18.556l-2.79,11.062h-0.577l-2.621-9.6c-0.034-0.13-0.063-0.266-0.088-0.407
			c-0.025,0.142-0.054,0.277-0.087,0.407l-2.628,9.6h-0.57l-2.796-11.062h0.532c0.122,0,0.199,0.07,0.232,0.211l2.239,9.092
			c0.046,0.208,0.088,0.445,0.125,0.711c0.021-0.136,0.042-0.262,0.063-0.379c0.021-0.117,0.045-0.228,0.075-0.332l2.508-9.092
			c0.017-0.057,0.046-0.107,0.088-0.147c0.042-0.042,0.092-0.063,0.15-0.063h0.176c0.058,0,0.106,0.02,0.144,0.059
			c0.038,0.039,0.067,0.09,0.088,0.152l2.508,9.092c0.029,0.1,0.055,0.208,0.079,0.328c0.023,0.12,0.045,0.245,0.065,0.375
			c0.021-0.13,0.041-0.254,0.06-0.371c0.019-0.117,0.039-0.228,0.06-0.332l2.239-9.092c0.013-0.057,0.041-0.107,0.084-0.147
			c0.044-0.042,0.095-0.063,0.154-0.063H36.903z"/>
		<path fill="#FFFFFF" d="M43.845,28.954l-0.012,0.664h-5.317V18.556h5.317v0.665h-4.671v4.472h3.888v0.648h-3.888v4.612H43.845z"/>
		<path fill="#FFFFFF" d="M48.341,18.556c0.506,0,0.945,0.063,1.317,0.188c0.373,0.125,0.679,0.31,0.922,0.552
			c0.242,0.242,0.422,0.538,0.539,0.887c0.117,0.35,0.176,0.745,0.176,1.188c0,0.292-0.041,0.573-0.122,0.844
			s-0.199,0.521-0.351,0.751c-0.153,0.229-0.341,0.429-0.564,0.598c-0.224,0.17-0.48,0.299-0.768,0.387
			c0.698,0.126,1.234,0.414,1.608,0.864c0.375,0.451,0.562,1.043,0.562,1.778c0,0.469-0.067,0.892-0.201,1.267
			c-0.133,0.375-0.328,0.693-0.583,0.953c-0.255,0.261-0.568,0.46-0.941,0.599c-0.372,0.139-0.794,0.207-1.266,0.207h-2.878V18.556
			H48.341z M46.435,19.19v4.541h1.918c0.41,0,0.76-0.064,1.051-0.195c0.29-0.131,0.528-0.302,0.714-0.516
			c0.187-0.214,0.323-0.456,0.411-0.728c0.087-0.271,0.132-0.55,0.132-0.836c0-0.745-0.189-1.31-0.568-1.692
			s-0.962-0.574-1.753-0.574H46.435z M48.661,28.976c0.778,0,1.366-0.209,1.766-0.629c0.399-0.419,0.599-1.01,0.599-1.771
			c0-0.349-0.053-0.663-0.16-0.942c-0.107-0.278-0.26-0.516-0.461-0.711s-0.448-0.345-0.74-0.449
			c-0.293-0.104-0.625-0.156-0.997-0.156h-2.232v4.658H48.661z"/>
		<path fill="#FFFFFF" d="M63.454,29.618h-0.495c-0.059,0-0.107-0.02-0.145-0.059s-0.067-0.09-0.087-0.153l-1.041-3.212h-4.358
			l-1.041,3.212c-0.017,0.058-0.046,0.107-0.088,0.149c-0.042,0.041-0.091,0.063-0.15,0.063h-0.489l3.631-11.062h0.633
			L63.454,29.618z M61.491,25.599l-1.806-5.589c-0.063-0.183-0.124-0.401-0.182-0.656c-0.025,0.125-0.052,0.244-0.082,0.355
			c-0.029,0.112-0.061,0.215-0.094,0.309l-1.806,5.581H61.491z"/>
		<path fill="#FFFFFF" d="M67.223,18.556c1.041,0,1.825,0.284,2.354,0.853c0.529,0.567,0.793,1.379,0.793,2.431
			c0,0.484-0.073,0.931-0.22,1.337c-0.146,0.406-0.355,0.757-0.627,1.051c-0.271,0.295-0.602,0.524-0.991,0.688
			c-0.389,0.164-0.826,0.246-1.31,0.246h-1.649v4.456h-0.646V18.556H67.223z M67.223,24.521c0.388,0,0.737-0.067,1.047-0.203
			c0.309-0.136,0.571-0.323,0.787-0.563c0.215-0.239,0.38-0.521,0.496-0.848c0.115-0.325,0.172-0.682,0.172-1.067
			c0-0.85-0.209-1.504-0.627-1.962c-0.418-0.459-1.043-0.688-1.875-0.688h-1.649v5.331H67.223z"/>
		<path fill="#FFFFFF" d="M74.472,18.556c1.041,0,1.825,0.284,2.354,0.853c0.529,0.567,0.793,1.379,0.793,2.431
			c0,0.484-0.073,0.931-0.22,1.337c-0.146,0.406-0.355,0.757-0.627,1.051c-0.271,0.295-0.602,0.524-0.991,0.688
			c-0.389,0.164-0.826,0.246-1.31,0.246h-1.65v4.456h-0.646V18.556H74.472z M74.472,24.521c0.388,0,0.737-0.067,1.047-0.203
			c0.309-0.136,0.571-0.323,0.787-0.563c0.215-0.239,0.38-0.521,0.496-0.848c0.115-0.325,0.172-0.682,0.172-1.067
			c0-0.85-0.209-1.504-0.627-1.962c-0.418-0.459-1.042-0.688-1.874-0.688h-1.65v5.331H74.472z"/>
		<path fill="#FFFFFF" d="M84.272,28.938v0.68h-4.847V18.556h0.646v10.382H84.272z"/>
		<path fill="#FFFFFF" d="M86.417,29.618h-0.646V18.556h0.646V29.618z"/>
		<path fill="#FFFFFF" d="M95.44,27.756c0.042,0,0.077,0.019,0.106,0.056l0.251,0.336c-0.184,0.245-0.383,0.465-0.599,0.66
			c-0.215,0.195-0.452,0.362-0.708,0.501c-0.257,0.138-0.54,0.245-0.847,0.319c-0.307,0.076-0.645,0.114-1.013,0.114
			c-0.614,0-1.178-0.134-1.689-0.402c-0.513-0.269-0.953-0.649-1.32-1.142c-0.368-0.492-0.653-1.088-0.856-1.786
			s-0.304-1.475-0.304-2.33c0-0.838,0.104-1.604,0.313-2.298c0.209-0.693,0.502-1.288,0.878-1.785
			c0.376-0.499,0.828-0.885,1.354-1.157c0.527-0.274,1.108-0.411,1.743-0.411c0.606,0,1.144,0.117,1.612,0.353
			c0.468,0.233,0.895,0.565,1.279,0.992l-0.195,0.352c-0.033,0.063-0.085,0.095-0.156,0.095c-0.05,0-0.132-0.058-0.245-0.173
			c-0.112-0.115-0.269-0.24-0.47-0.379c-0.201-0.138-0.451-0.265-0.75-0.379c-0.299-0.115-0.658-0.173-1.076-0.173
			c-0.535,0-1.025,0.115-1.47,0.344c-0.445,0.229-0.828,0.559-1.148,0.985c-0.32,0.428-0.569,0.949-0.749,1.563
			c-0.18,0.615-0.27,1.306-0.27,2.071c0,0.782,0.091,1.48,0.272,2.095c0.182,0.616,0.432,1.136,0.75,1.561
			c0.317,0.425,0.692,0.75,1.125,0.978c0.433,0.226,0.9,0.34,1.402,0.34c0.317,0,0.601-0.026,0.85-0.079
			c0.249-0.051,0.477-0.129,0.687-0.234c0.209-0.104,0.403-0.231,0.583-0.382c0.18-0.152,0.357-0.328,0.533-0.532
			c0.021-0.021,0.042-0.038,0.063-0.052C95.398,27.763,95.419,27.756,95.44,27.756z"/>
		<path fill="#FFFFFF" d="M104.263,29.618h-0.495c-0.059,0-0.107-0.02-0.145-0.059c-0.038-0.039-0.066-0.09-0.087-0.153
			l-1.041-3.212h-4.358l-1.041,3.212c-0.017,0.058-0.046,0.107-0.088,0.149c-0.042,0.041-0.092,0.063-0.15,0.063h-0.489
			l3.631-11.062h0.633L104.263,29.618z M102.3,25.599l-1.806-5.589c-0.063-0.183-0.124-0.401-0.182-0.656
			c-0.025,0.125-0.052,0.244-0.081,0.355c-0.03,0.112-0.062,0.215-0.094,0.309l-1.807,5.581H102.3z"/>
		<path fill="#FFFFFF" d="M110.627,19.237h-3.117v10.381h-0.646V19.237h-3.136v-0.681h6.898V19.237z"/>
		<path fill="#FFFFFF" d="M112.766,29.618h-0.646V18.556h0.646V29.618z"/>
		<path fill="#FFFFFF" d="M123.269,24.083c0,0.855-0.102,1.63-0.307,2.326c-0.205,0.695-0.493,1.29-0.865,1.782
			c-0.372,0.493-0.818,0.873-1.339,1.141c-0.521,0.27-1.094,0.403-1.722,0.403c-0.626,0-1.2-0.134-1.718-0.403
			c-0.519-0.268-0.964-0.647-1.336-1.141c-0.372-0.492-0.661-1.087-0.865-1.782c-0.205-0.696-0.307-1.471-0.307-2.326
			c0-0.849,0.103-1.621,0.307-2.317c0.205-0.695,0.494-1.29,0.865-1.782c0.372-0.492,0.817-0.874,1.336-1.146
			c0.518-0.271,1.091-0.406,1.718-0.406c0.627,0,1.201,0.135,1.722,0.403c0.521,0.268,0.967,0.649,1.339,1.145
			s0.661,1.091,0.865,1.786C123.167,22.461,123.269,23.234,123.269,24.083z M122.604,24.083c0-0.771-0.085-1.464-0.257-2.079
			c-0.172-0.615-0.414-1.136-0.728-1.563c-0.313-0.427-0.69-0.754-1.129-0.98c-0.439-0.228-0.924-0.341-1.455-0.341
			c-0.526,0-1.009,0.113-1.448,0.341c-0.439,0.227-0.816,0.554-1.132,0.98c-0.316,0.428-0.56,0.948-0.734,1.563
			c-0.173,0.615-0.26,1.309-0.26,2.079c0,0.777,0.087,1.471,0.26,2.084c0.174,0.612,0.418,1.132,0.734,1.56
			c0.316,0.427,0.693,0.753,1.132,0.977c0.439,0.225,0.922,0.337,1.448,0.337c0.531,0,1.016-0.112,1.455-0.337
			c0.439-0.224,0.815-0.55,1.129-0.977c0.313-0.428,0.556-0.947,0.728-1.56C122.519,25.553,122.604,24.86,122.604,24.083z"/>
		<path fill="#FFFFFF" d="M132.161,18.556v11.062h-0.301c-0.054,0-0.099-0.012-0.134-0.035c-0.036-0.023-0.07-0.064-0.104-0.121
			l-5.763-9.6c0.013,0.156,0.019,0.305,0.019,0.445v9.311h-0.564V18.556h0.32c0.058,0,0.104,0.01,0.135,0.027
			c0.031,0.019,0.066,0.059,0.104,0.121l5.75,9.576c-0.012-0.156-0.019-0.305-0.019-0.446v-9.278H132.161z"/>
		<path fill="#FFFFFF" d="M145.662,24.083c0,0.855-0.102,1.624-0.307,2.307s-0.493,1.264-0.865,1.743
			c-0.373,0.479-0.818,0.848-1.339,1.103s-1.094,0.383-1.721,0.383h-3.242V18.556h3.242c0.627,0,1.201,0.128,1.721,0.384
			c0.521,0.255,0.966,0.622,1.339,1.102c0.372,0.479,0.66,1.061,0.865,1.743S145.662,23.234,145.662,24.083z M144.997,24.083
			c0-0.771-0.086-1.459-0.257-2.063c-0.172-0.604-0.414-1.115-0.728-1.531c-0.313-0.418-0.689-0.735-1.128-0.955
			c-0.439-0.219-0.924-0.328-1.455-0.328h-2.596v9.765h2.596c0.53,0,1.016-0.11,1.455-0.328c0.439-0.22,0.815-0.538,1.128-0.954
			c0.314-0.417,0.556-0.928,0.728-1.532C144.911,25.55,144.997,24.86,144.997,24.083z"/>
		<path fill="#FFFFFF" d="M153.048,28.954l-0.012,0.664h-5.317V18.556h5.317v0.665h-4.672v4.472h3.888v0.648h-3.888v4.612H153.048z"
			/>
		<path fill="#FFFFFF" d="M161.739,18.556l-3.662,11.062h-0.571l-3.662-11.062h0.508c0.058,0,0.106,0.02,0.144,0.059
			s0.067,0.09,0.087,0.152l3.023,9.178c0.033,0.114,0.067,0.237,0.101,0.367c0.033,0.131,0.064,0.264,0.094,0.398
			c0.025-0.135,0.052-0.268,0.081-0.398c0.03-0.13,0.063-0.253,0.101-0.367L161,18.767c0.017-0.057,0.046-0.107,0.088-0.147
			c0.042-0.042,0.091-0.063,0.15-0.063H161.739z"/>
		<path fill="#FFFFFF" d="M168.543,28.954l-0.012,0.664h-5.317V18.556h5.317v0.665h-4.672v4.472h3.888v0.648h-3.888v4.612H168.543z"
			/>
		<path fill="#FFFFFF" d="M175.334,28.938v0.68h-4.847V18.556h0.646v10.382H175.334z"/>
		<path fill="#FFFFFF" d="M184.176,24.083c0,0.855-0.102,1.63-0.307,2.326c-0.205,0.695-0.494,1.29-0.865,1.782
			c-0.373,0.493-0.818,0.873-1.339,1.141c-0.521,0.27-1.094,0.403-1.721,0.403c-0.627,0-1.2-0.134-1.718-0.403
			c-0.519-0.268-0.963-0.647-1.336-1.141c-0.372-0.492-0.66-1.087-0.865-1.782c-0.205-0.696-0.307-1.471-0.307-2.326
			c0-0.849,0.103-1.621,0.307-2.317c0.205-0.695,0.494-1.29,0.865-1.782c0.373-0.492,0.817-0.874,1.336-1.146
			c0.519-0.271,1.091-0.406,1.718-0.406c0.627,0,1.201,0.135,1.721,0.403c0.521,0.268,0.967,0.649,1.339,1.145
			c0.372,0.495,0.66,1.091,0.865,1.786C184.074,22.461,184.176,23.234,184.176,24.083z M183.511,24.083
			c0-0.771-0.085-1.464-0.257-2.079c-0.172-0.615-0.414-1.136-0.728-1.563c-0.313-0.427-0.69-0.754-1.129-0.98
			c-0.439-0.228-0.924-0.341-1.455-0.341c-0.527,0-1.009,0.113-1.448,0.341c-0.439,0.227-0.816,0.554-1.132,0.98
			c-0.315,0.428-0.56,0.948-0.734,1.563c-0.173,0.615-0.26,1.309-0.26,2.079c0,0.777,0.087,1.471,0.26,2.084
			c0.174,0.612,0.418,1.132,0.734,1.56c0.316,0.427,0.693,0.753,1.132,0.977c0.439,0.225,0.921,0.337,1.448,0.337
			c0.531,0,1.016-0.112,1.455-0.337c0.439-0.224,0.815-0.55,1.129-0.977c0.313-0.428,0.556-0.947,0.728-1.56
			C183.426,25.553,183.511,24.86,183.511,24.083z"/>
		<path fill="#FFFFFF" d="M188.516,18.556c1.041,0,1.826,0.284,2.354,0.853c0.529,0.567,0.793,1.379,0.793,2.431
			c0,0.484-0.073,0.931-0.219,1.337s-0.355,0.757-0.627,1.051c-0.272,0.295-0.602,0.524-0.991,0.688s-0.826,0.246-1.311,0.246
			h-1.649v4.456h-0.646V18.556H188.516z M188.516,24.521c0.389,0,0.737-0.067,1.047-0.203s0.572-0.323,0.787-0.563
			c0.215-0.239,0.38-0.521,0.495-0.848c0.115-0.325,0.173-0.682,0.173-1.067c0-0.85-0.209-1.504-0.627-1.962
			c-0.418-0.459-1.043-0.688-1.875-0.688h-1.649v5.331H188.516z"/>
		<path fill="#FFFFFF" d="M198.799,28.954l-0.012,0.664h-5.317V18.556h5.317v0.665h-4.672v4.472h3.888v0.648h-3.888v4.612H198.799z"
			/>
		<path fill="#FFFFFF" d="M206.864,29.618h-0.552c-0.071,0-0.13-0.014-0.179-0.043c-0.048-0.029-0.093-0.082-0.134-0.16
			l-2.847-4.487c-0.034-0.058-0.068-0.106-0.104-0.148s-0.075-0.074-0.119-0.098s-0.096-0.04-0.157-0.051s-0.135-0.016-0.223-0.016
			h-1.16v5.003h-0.646V18.556h2.27c1.02,0,1.784,0.247,2.292,0.739s0.762,1.215,0.762,2.17c0,0.421-0.058,0.808-0.175,1.156
			s-0.285,0.655-0.505,0.918c-0.219,0.264-0.485,0.479-0.796,0.646c-0.311,0.166-0.662,0.278-1.05,0.336
			c0.101,0.078,0.19,0.183,0.27,0.313L206.864,29.618z M202.926,24.021c0.393,0,0.745-0.059,1.057-0.177
			c0.311-0.117,0.574-0.285,0.79-0.504s0.379-0.481,0.493-0.789c0.113-0.308,0.169-0.654,0.169-1.04
			c0-0.787-0.206-1.371-0.617-1.751c-0.412-0.38-1.013-0.57-1.803-0.57h-1.624v4.831H202.926z"/>
	</g>
	<g display="inline">
		<path fill="none" stroke="#FFFFFF" stroke-width="0.2" d="M66.071,0.475h-3.117v10.382h-0.646V0.475h-3.135v-0.68h6.898V0.475z"/>
		<path fill="none" stroke="#FFFFFF" stroke-width="0.2" d="M74.925,5.322c0,0.855-0.103,1.63-0.307,2.326
			c-0.205,0.695-0.494,1.289-0.865,1.782c-0.372,0.492-0.818,0.873-1.339,1.141c-0.521,0.27-1.094,0.403-1.721,0.403
			c-0.627,0-1.2-0.134-1.718-0.403c-0.518-0.268-0.963-0.648-1.335-1.141c-0.372-0.493-0.661-1.087-0.865-1.782
			c-0.205-0.696-0.307-1.471-0.307-2.326c0-0.85,0.102-1.622,0.307-2.317c0.205-0.696,0.493-1.29,0.865-1.782
			s0.817-0.874,1.335-1.146c0.519-0.271,1.091-0.406,1.718-0.406c0.627,0,1.201,0.134,1.721,0.402
			c0.521,0.269,0.967,0.65,1.339,1.146c0.372,0.495,0.661,1.09,0.865,1.786C74.823,3.7,74.925,4.472,74.925,5.322z M74.261,5.322
			c0-0.771-0.085-1.464-0.257-2.079c-0.171-0.614-0.414-1.136-0.727-1.563c-0.314-0.428-0.69-0.754-1.129-0.98
			c-0.439-0.228-0.924-0.341-1.455-0.341c-0.526,0-1.009,0.113-1.448,0.341c-0.439,0.227-0.816,0.553-1.132,0.98
			c-0.316,0.428-0.561,0.949-0.734,1.563c-0.173,0.615-0.26,1.308-0.26,2.079c0,0.777,0.087,1.471,0.26,2.084
			c0.173,0.612,0.418,1.132,0.734,1.559c0.315,0.428,0.693,0.754,1.132,0.978c0.439,0.225,0.922,0.337,1.448,0.337
			c0.531,0,1.016-0.112,1.455-0.337c0.439-0.224,0.815-0.55,1.129-0.978c0.313-0.427,0.556-0.946,0.727-1.559
			C74.175,6.792,74.261,6.099,74.261,5.322z"/>
		<path fill="none" stroke="#FFFFFF" stroke-width="0.2" d="M85.736-0.205v11.062h-0.558V1.429c0-0.136,0.006-0.278,0.018-0.43
			l-3.492,7.73c-0.059,0.137-0.143,0.203-0.251,0.203h-0.101c-0.109,0-0.192-0.066-0.251-0.203l-3.586-7.746
			c0.013,0.155,0.019,0.304,0.019,0.445v9.428H76.97V-0.205h0.445c0.059,0,0.104,0.008,0.138,0.023
			c0.033,0.016,0.067,0.058,0.101,0.125l3.58,7.692c0.063,0.146,0.117,0.303,0.163,0.469c0.025-0.083,0.053-0.165,0.082-0.246
			c0.03-0.081,0.061-0.157,0.094-0.23l3.48-7.685c0.034-0.067,0.068-0.109,0.104-0.125c0.036-0.016,0.083-0.023,0.142-0.023H85.736z
			"/>
		<path fill="none" stroke="#FFFFFF" stroke-width="0.2" d="M95.104,10.857h-0.495c-0.059,0-0.107-0.021-0.145-0.059
			c-0.038-0.04-0.067-0.09-0.088-0.152l-1.041-3.213h-4.358l-1.041,3.213c-0.017,0.057-0.046,0.106-0.088,0.148
			c-0.042,0.041-0.092,0.063-0.15,0.063h-0.489L90.84-0.205h0.633L95.104,10.857z M93.142,6.838L91.336,1.25
			c-0.063-0.183-0.124-0.401-0.182-0.657c-0.026,0.125-0.053,0.244-0.082,0.355c-0.03,0.112-0.061,0.216-0.094,0.309l-1.807,5.582
			H93.142z"/>
		<path fill="none" stroke="#FFFFFF" stroke-width="0.2" d="M100.886,1.139c-0.038,0.089-0.092,0.134-0.163,0.134
			c-0.055,0-0.124-0.049-0.21-0.145c-0.086-0.097-0.202-0.203-0.348-0.32c-0.146-0.118-0.329-0.226-0.548-0.325
			c-0.22-0.099-0.491-0.148-0.813-0.148s-0.605,0.058-0.849,0.173c-0.245,0.114-0.45,0.271-0.615,0.468
			c-0.166,0.198-0.291,0.428-0.376,0.688s-0.129,0.534-0.129,0.821c0,0.374,0.064,0.685,0.191,0.93
			c0.127,0.245,0.296,0.453,0.505,0.626c0.209,0.172,0.447,0.316,0.712,0.434s0.538,0.233,0.818,0.348
			c0.28,0.114,0.552,0.241,0.818,0.379c0.265,0.139,0.502,0.312,0.712,0.52c0.208,0.209,0.377,0.466,0.504,0.771
			s0.191,0.684,0.191,1.138c0,0.463-0.064,0.9-0.191,1.309c-0.127,0.409-0.313,0.766-0.555,1.067
			c-0.243,0.303-0.54,0.541-0.891,0.716c-0.351,0.174-0.752,0.262-1.204,0.262c-0.585,0-1.089-0.129-1.511-0.388
			c-0.423-0.257-0.792-0.61-1.11-1.059l0.176-0.344c0.05-0.078,0.108-0.117,0.176-0.117c0.037,0,0.085,0.03,0.144,0.094
			c0.059,0.062,0.129,0.139,0.213,0.229c0.084,0.093,0.184,0.19,0.301,0.298c0.117,0.106,0.253,0.206,0.408,0.297
			c0.155,0.092,0.333,0.168,0.533,0.23s0.428,0.094,0.683,0.094c0.351,0,0.665-0.066,0.94-0.199
			c0.276-0.133,0.509-0.313,0.699-0.543c0.19-0.229,0.336-0.502,0.436-0.817c0.101-0.315,0.15-0.652,0.15-1.013
			c0-0.39-0.064-0.712-0.191-0.965c-0.128-0.252-0.296-0.463-0.505-0.634c-0.208-0.169-0.446-0.311-0.711-0.426
			c-0.266-0.113-0.538-0.227-0.818-0.336c-0.28-0.109-0.553-0.231-0.818-0.367c-0.266-0.135-0.502-0.309-0.712-0.52
			c-0.208-0.211-0.377-0.475-0.504-0.789c-0.128-0.316-0.191-0.71-0.191-1.185c0-0.37,0.056-0.728,0.169-1.071
			c0.112-0.344,0.278-0.647,0.496-0.911c0.217-0.264,0.486-0.474,0.805-0.633c0.32-0.158,0.685-0.238,1.095-0.238
			c0.46,0,0.872,0.091,1.238,0.273c0.366,0.183,0.699,0.461,1,0.837L100.886,1.139z"/>
		<path fill="none" stroke="#FFFFFF" stroke-width="0.2" d="M111,1.139c-0.038,0.089-0.092,0.134-0.163,0.134
			c-0.054,0-0.124-0.049-0.209-0.145c-0.086-0.097-0.202-0.203-0.349-0.32c-0.146-0.118-0.329-0.226-0.548-0.325
			c-0.219-0.099-0.49-0.148-0.812-0.148s-0.605,0.058-0.85,0.173c-0.245,0.114-0.45,0.271-0.615,0.468
			c-0.166,0.198-0.291,0.428-0.376,0.688c-0.086,0.261-0.129,0.534-0.129,0.821c0,0.374,0.064,0.685,0.191,0.93
			s0.296,0.453,0.504,0.626c0.209,0.172,0.447,0.316,0.712,0.434c0.266,0.117,0.539,0.233,0.818,0.348
			c0.28,0.114,0.553,0.241,0.818,0.379c0.266,0.139,0.503,0.312,0.712,0.52c0.209,0.209,0.377,0.466,0.505,0.771
			c0.127,0.305,0.191,0.684,0.191,1.138c0,0.463-0.063,0.9-0.191,1.309c-0.128,0.409-0.313,0.766-0.555,1.067
			c-0.242,0.303-0.539,0.541-0.891,0.716c-0.351,0.174-0.752,0.262-1.204,0.262c-0.585,0-1.089-0.129-1.511-0.388
			c-0.422-0.257-0.792-0.61-1.11-1.059l0.175-0.344c0.05-0.078,0.109-0.117,0.176-0.117c0.037,0,0.086,0.03,0.144,0.094
			c0.059,0.062,0.129,0.139,0.213,0.229c0.084,0.093,0.185,0.19,0.301,0.298c0.117,0.106,0.253,0.206,0.408,0.297
			c0.155,0.092,0.333,0.168,0.533,0.23s0.428,0.094,0.684,0.094c0.351,0,0.665-0.066,0.94-0.199s0.509-0.313,0.699-0.543
			c0.19-0.229,0.335-0.502,0.436-0.817c0.1-0.315,0.15-0.652,0.15-1.013c0-0.39-0.063-0.712-0.191-0.965
			c-0.128-0.252-0.296-0.463-0.505-0.634c-0.209-0.169-0.446-0.311-0.711-0.426c-0.266-0.113-0.539-0.227-0.818-0.336
			c-0.28-0.109-0.553-0.231-0.818-0.367c-0.266-0.135-0.503-0.309-0.712-0.52s-0.377-0.475-0.505-0.789
			c-0.128-0.316-0.191-0.71-0.191-1.185c0-0.37,0.057-0.728,0.169-1.071s0.278-0.647,0.496-0.911
			c0.217-0.264,0.486-0.474,0.806-0.633c0.32-0.158,0.685-0.238,1.094-0.238c0.46,0,0.873,0.091,1.239,0.273
			c0.365,0.183,0.699,0.461,1,0.837L111,1.139z"/>
		<path fill="none" stroke="#FFFFFF" stroke-width="0.2" d="M119.804,8.996c0.042,0,0.078,0.019,0.106,0.055l0.251,0.337
			c-0.184,0.244-0.383,0.465-0.599,0.66s-0.452,0.362-0.708,0.501c-0.257,0.138-0.539,0.245-0.847,0.32
			c-0.307,0.075-0.645,0.113-1.013,0.113c-0.614,0-1.178-0.135-1.689-0.403c-0.512-0.268-0.952-0.648-1.32-1.141
			c-0.368-0.492-0.653-1.088-0.856-1.786c-0.203-0.699-0.304-1.475-0.304-2.33c0-0.839,0.104-1.605,0.313-2.299
			c0.209-0.692,0.502-1.288,0.878-1.785c0.376-0.498,0.828-0.884,1.355-1.157s1.108-0.41,1.743-0.41
			c0.607,0,1.144,0.117,1.612,0.352c0.468,0.234,0.895,0.565,1.279,0.992l-0.194,0.353c-0.033,0.063-0.086,0.094-0.156,0.094
			c-0.051,0-0.132-0.058-0.245-0.173c-0.113-0.114-0.27-0.24-0.47-0.378c-0.201-0.139-0.451-0.265-0.75-0.38
			s-0.657-0.172-1.076-0.172c-0.535,0-1.025,0.115-1.47,0.345c-0.445,0.229-0.828,0.558-1.147,0.984
			c-0.32,0.428-0.569,0.948-0.749,1.563c-0.18,0.614-0.27,1.306-0.27,2.071c0,0.782,0.091,1.48,0.273,2.095
			c0.182,0.615,0.432,1.135,0.75,1.561c0.317,0.425,0.692,0.75,1.125,0.977c0.433,0.227,0.9,0.34,1.401,0.34
			c0.318,0,0.601-0.026,0.85-0.078c0.249-0.052,0.477-0.13,0.686-0.234c0.209-0.104,0.403-0.232,0.583-0.383
			c0.18-0.151,0.357-0.328,0.533-0.532c0.021-0.021,0.042-0.037,0.063-0.05C119.763,9.002,119.783,8.996,119.804,8.996z"/>
		<path fill="none" stroke="#FFFFFF" stroke-width="0.2" d="M128.727-0.205v11.062h-0.646V5.556h-5.556v5.301h-0.646V-0.205h0.646
			v5.159h5.556v-5.159H128.727z"/>
		<path fill="none" stroke="#FFFFFF" stroke-width="0.2" d="M136.196,10.176v0.681h-4.847V-0.205h0.646v10.381H136.196z"/>
		<path fill="none" stroke="#FFFFFF" stroke-width="0.2" d="M143.024,10.192l-0.012,0.665h-5.317V-0.205h5.317v0.664h-4.672v4.472
			h3.888v0.649h-3.888v4.611H143.024z"/>
		<path fill="none" stroke="#FFFFFF" stroke-width="0.2" d="M147.264-0.205c1.041,0,1.826,0.284,2.354,0.852
			c0.529,0.568,0.793,1.379,0.793,2.432c0,0.484-0.073,0.931-0.22,1.337c-0.146,0.406-0.355,0.757-0.627,1.051
			c-0.272,0.295-0.602,0.524-0.991,0.688c-0.389,0.164-0.826,0.246-1.311,0.246h-1.649v4.456h-0.646V-0.205H147.264z M147.264,5.759
			c0.389,0,0.738-0.067,1.047-0.203c0.309-0.135,0.571-0.323,0.787-0.563c0.215-0.24,0.38-0.522,0.496-0.848
			c0.115-0.326,0.172-0.682,0.172-1.067c0-0.85-0.209-1.504-0.627-1.962c-0.418-0.459-1.042-0.688-1.875-0.688h-1.649v5.331H147.264
			z"/>
		<path fill="none" stroke="#FFFFFF" stroke-width="0.2" d="M157.547,10.192l-0.012,0.665h-5.317V-0.205h5.317v0.664h-4.672v4.472
			h3.888v0.649h-3.888v4.611H157.547z"/>
		<path fill="none" stroke="#FFFFFF" stroke-width="0.2" d="M165.612,10.857h-0.552c-0.071,0-0.13-0.015-0.179-0.044
			c-0.048-0.028-0.093-0.082-0.134-0.159l-2.847-4.488c-0.034-0.057-0.068-0.106-0.104-0.147c-0.036-0.042-0.075-0.075-0.119-0.098
			c-0.044-0.024-0.096-0.041-0.157-0.052c-0.061-0.01-0.135-0.015-0.223-0.015h-1.16v5.003h-0.646V-0.205h2.27
			c1.02,0,1.785,0.246,2.292,0.738c0.507,0.493,0.762,1.215,0.762,2.17c0,0.422-0.059,0.808-0.176,1.156
			c-0.117,0.35-0.285,0.656-0.505,0.919c-0.219,0.264-0.484,0.479-0.796,0.645c-0.311,0.167-0.662,0.279-1.05,0.336
			c0.1,0.078,0.19,0.183,0.269,0.313L165.612,10.857z M161.674,5.259c0.393,0,0.745-0.059,1.057-0.176
			c0.311-0.117,0.574-0.285,0.79-0.504c0.215-0.219,0.379-0.482,0.492-0.79s0.169-0.653,0.169-1.04c0-0.786-0.206-1.37-0.617-1.75
			c-0.412-0.381-1.013-0.571-1.803-0.571h-1.624v4.831H161.674z"/>
		<path fill="none" stroke="#FFFFFF" stroke-width="0.2" d="M171.412,1.139c-0.038,0.089-0.092,0.134-0.163,0.134
			c-0.055,0-0.125-0.049-0.21-0.145c-0.086-0.097-0.202-0.203-0.348-0.32c-0.146-0.118-0.329-0.226-0.548-0.325
			c-0.22-0.099-0.491-0.148-0.813-0.148s-0.605,0.058-0.849,0.173c-0.245,0.114-0.45,0.271-0.615,0.468
			c-0.166,0.198-0.291,0.428-0.376,0.688s-0.129,0.534-0.129,0.821c0,0.374,0.064,0.685,0.191,0.93
			c0.127,0.245,0.296,0.453,0.505,0.626c0.209,0.172,0.447,0.316,0.712,0.434s0.538,0.233,0.818,0.348
			c0.28,0.114,0.552,0.241,0.818,0.379c0.265,0.139,0.502,0.312,0.712,0.52c0.208,0.209,0.377,0.466,0.504,0.771
			s0.191,0.684,0.191,1.138c0,0.463-0.064,0.9-0.191,1.309c-0.127,0.409-0.313,0.766-0.555,1.067
			c-0.243,0.303-0.54,0.541-0.891,0.716c-0.351,0.174-0.752,0.262-1.204,0.262c-0.585,0-1.089-0.129-1.511-0.388
			c-0.423-0.257-0.792-0.61-1.11-1.059l0.176-0.344c0.05-0.078,0.108-0.117,0.176-0.117c0.037,0,0.085,0.03,0.144,0.094
			c0.059,0.062,0.129,0.139,0.213,0.229c0.084,0.093,0.184,0.19,0.301,0.298c0.117,0.106,0.253,0.206,0.408,0.297
			c0.155,0.092,0.333,0.168,0.533,0.23s0.428,0.094,0.683,0.094c0.351,0,0.665-0.066,0.94-0.199
			c0.276-0.133,0.509-0.313,0.699-0.543c0.19-0.229,0.336-0.502,0.436-0.817c0.101-0.315,0.15-0.652,0.15-1.013
			c0-0.39-0.064-0.712-0.191-0.965c-0.128-0.252-0.296-0.463-0.505-0.634c-0.208-0.169-0.446-0.311-0.711-0.426
			c-0.266-0.113-0.538-0.227-0.818-0.336c-0.28-0.109-0.553-0.231-0.818-0.367c-0.266-0.135-0.502-0.309-0.712-0.52
			c-0.208-0.211-0.377-0.475-0.504-0.789c-0.128-0.316-0.192-0.71-0.192-1.185c0-0.37,0.057-0.728,0.17-1.071
			c0.112-0.344,0.278-0.647,0.496-0.911c0.217-0.264,0.486-0.474,0.805-0.633c0.32-0.158,0.685-0.238,1.095-0.238
			c0.459,0,0.872,0.091,1.238,0.273c0.366,0.183,0.699,0.461,1,0.837L171.412,1.139z"/>
		<path fill="none" stroke="#FFFFFF" stroke-width="0.2" d="M36.903,18.556l-2.79,11.062h-0.577l-2.621-9.6
			c-0.034-0.13-0.063-0.266-0.088-0.407c-0.025,0.142-0.054,0.277-0.087,0.407l-2.628,9.6h-0.57l-2.796-11.062h0.532
			c0.122,0,0.199,0.07,0.232,0.211l2.239,9.092c0.046,0.208,0.088,0.445,0.125,0.711c0.021-0.136,0.042-0.262,0.063-0.379
			c0.021-0.117,0.045-0.228,0.075-0.332l2.508-9.092c0.017-0.057,0.046-0.107,0.088-0.147c0.042-0.042,0.092-0.063,0.15-0.063h0.176
			c0.058,0,0.106,0.02,0.144,0.059c0.038,0.039,0.067,0.09,0.088,0.152l2.508,9.092c0.029,0.1,0.055,0.208,0.079,0.328
			c0.023,0.12,0.045,0.245,0.065,0.375c0.021-0.13,0.041-0.254,0.06-0.371c0.019-0.117,0.039-0.228,0.06-0.332l2.239-9.092
			c0.013-0.057,0.041-0.107,0.084-0.147c0.044-0.042,0.095-0.063,0.154-0.063H36.903z"/>
		<path fill="none" stroke="#FFFFFF" stroke-width="0.2" d="M43.845,28.954l-0.012,0.664h-5.317V18.556h5.317v0.665h-4.671v4.472
			h3.888v0.648h-3.888v4.612H43.845z"/>
		<path fill="none" stroke="#FFFFFF" stroke-width="0.2" d="M48.341,18.556c0.506,0,0.945,0.063,1.317,0.188
			c0.373,0.125,0.679,0.31,0.922,0.552c0.242,0.242,0.422,0.538,0.539,0.887c0.117,0.35,0.176,0.745,0.176,1.188
			c0,0.292-0.041,0.573-0.122,0.844s-0.199,0.521-0.351,0.751c-0.153,0.229-0.341,0.429-0.564,0.598
			c-0.224,0.17-0.48,0.299-0.768,0.387c0.698,0.126,1.234,0.414,1.608,0.864c0.375,0.451,0.562,1.043,0.562,1.778
			c0,0.469-0.067,0.892-0.201,1.267c-0.133,0.375-0.328,0.693-0.583,0.953c-0.255,0.261-0.568,0.46-0.941,0.599
			c-0.372,0.139-0.794,0.207-1.266,0.207h-2.878V18.556H48.341z M46.435,19.19v4.541h1.918c0.41,0,0.76-0.064,1.051-0.195
			c0.29-0.131,0.528-0.302,0.714-0.516c0.187-0.214,0.323-0.456,0.411-0.728c0.087-0.271,0.132-0.55,0.132-0.836
			c0-0.745-0.189-1.31-0.568-1.692s-0.962-0.574-1.753-0.574H46.435z M48.661,28.976c0.778,0,1.366-0.209,1.766-0.629
			c0.399-0.419,0.599-1.01,0.599-1.771c0-0.349-0.053-0.663-0.16-0.942c-0.107-0.278-0.26-0.516-0.461-0.711
			s-0.448-0.345-0.74-0.449c-0.293-0.104-0.625-0.156-0.997-0.156h-2.232v4.658H48.661z"/>
		<path fill="none" stroke="#FFFFFF" stroke-width="0.2" d="M63.454,29.618h-0.495c-0.059,0-0.107-0.02-0.145-0.059
			s-0.067-0.09-0.087-0.153l-1.041-3.212h-4.358l-1.041,3.212c-0.017,0.058-0.046,0.107-0.088,0.149
			c-0.042,0.041-0.091,0.063-0.15,0.063h-0.489l3.631-11.062h0.633L63.454,29.618z M61.491,25.599l-1.806-5.589
			c-0.063-0.183-0.124-0.401-0.182-0.656c-0.025,0.125-0.052,0.244-0.082,0.355c-0.029,0.112-0.061,0.215-0.094,0.309l-1.806,5.581
			H61.491z"/>
		<path fill="none" stroke="#FFFFFF" stroke-width="0.2" d="M67.223,18.556c1.041,0,1.825,0.284,2.354,0.853
			c0.529,0.567,0.793,1.379,0.793,2.431c0,0.484-0.073,0.931-0.22,1.337c-0.146,0.406-0.355,0.757-0.627,1.051
			c-0.271,0.295-0.602,0.524-0.991,0.688c-0.389,0.164-0.826,0.246-1.31,0.246h-1.649v4.456h-0.646V18.556H67.223z M67.223,24.521
			c0.388,0,0.737-0.067,1.047-0.203c0.309-0.136,0.571-0.323,0.787-0.563c0.215-0.239,0.38-0.521,0.496-0.848
			c0.115-0.325,0.172-0.682,0.172-1.067c0-0.85-0.209-1.504-0.627-1.962c-0.418-0.459-1.043-0.688-1.875-0.688h-1.649v5.331H67.223z
			"/>
		<path fill="none" stroke="#FFFFFF" stroke-width="0.2" d="M74.472,18.556c1.041,0,1.825,0.284,2.354,0.853
			c0.529,0.567,0.793,1.379,0.793,2.431c0,0.484-0.073,0.931-0.22,1.337c-0.146,0.406-0.355,0.757-0.627,1.051
			c-0.271,0.295-0.602,0.524-0.991,0.688c-0.389,0.164-0.826,0.246-1.31,0.246h-1.65v4.456h-0.646V18.556H74.472z M74.472,24.521
			c0.388,0,0.737-0.067,1.047-0.203c0.309-0.136,0.571-0.323,0.787-0.563c0.215-0.239,0.38-0.521,0.496-0.848
			c0.115-0.325,0.172-0.682,0.172-1.067c0-0.85-0.209-1.504-0.627-1.962c-0.418-0.459-1.042-0.688-1.874-0.688h-1.65v5.331H74.472z"
			/>
		<path fill="none" stroke="#FFFFFF" stroke-width="0.2" d="M84.272,28.938v0.68h-4.847V18.556h0.646v10.382H84.272z"/>
		<path fill="none" stroke="#FFFFFF" stroke-width="0.2" d="M86.417,29.618h-0.646V18.556h0.646V29.618z"/>
		<path fill="none" stroke="#FFFFFF" stroke-width="0.2" d="M95.44,27.756c0.042,0,0.077,0.019,0.106,0.056l0.251,0.336
			c-0.184,0.245-0.383,0.465-0.599,0.66c-0.215,0.195-0.452,0.362-0.708,0.501c-0.257,0.138-0.54,0.245-0.847,0.319
			c-0.307,0.076-0.645,0.114-1.013,0.114c-0.614,0-1.178-0.134-1.689-0.402c-0.513-0.269-0.953-0.649-1.32-1.142
			c-0.368-0.492-0.653-1.088-0.856-1.786s-0.304-1.475-0.304-2.33c0-0.838,0.104-1.604,0.313-2.298
			c0.209-0.693,0.502-1.288,0.878-1.785c0.376-0.499,0.828-0.885,1.354-1.157c0.527-0.274,1.108-0.411,1.743-0.411
			c0.606,0,1.144,0.117,1.612,0.353c0.468,0.233,0.895,0.565,1.279,0.992l-0.195,0.352c-0.033,0.063-0.085,0.095-0.156,0.095
			c-0.05,0-0.132-0.058-0.245-0.173c-0.112-0.115-0.269-0.24-0.47-0.379c-0.201-0.138-0.451-0.265-0.75-0.379
			c-0.299-0.115-0.658-0.173-1.076-0.173c-0.535,0-1.025,0.115-1.47,0.344c-0.445,0.229-0.828,0.559-1.148,0.985
			c-0.32,0.428-0.569,0.949-0.749,1.563c-0.18,0.615-0.27,1.306-0.27,2.071c0,0.782,0.091,1.48,0.272,2.095
			c0.182,0.616,0.432,1.136,0.75,1.561c0.317,0.425,0.692,0.75,1.125,0.978c0.433,0.226,0.9,0.34,1.402,0.34
			c0.317,0,0.601-0.026,0.85-0.079c0.249-0.051,0.477-0.129,0.687-0.234c0.209-0.104,0.403-0.231,0.583-0.382
			c0.18-0.152,0.357-0.328,0.533-0.532c0.021-0.021,0.042-0.038,0.063-0.052C95.398,27.763,95.419,27.756,95.44,27.756z"/>
		<path fill="none" stroke="#FFFFFF" stroke-width="0.2" d="M104.263,29.618h-0.495c-0.059,0-0.107-0.02-0.145-0.059
			c-0.038-0.039-0.066-0.09-0.087-0.153l-1.041-3.212h-4.358l-1.041,3.212c-0.017,0.058-0.046,0.107-0.088,0.149
			c-0.042,0.041-0.092,0.063-0.15,0.063h-0.489l3.631-11.062h0.633L104.263,29.618z M102.3,25.599l-1.806-5.589
			c-0.063-0.183-0.124-0.401-0.182-0.656c-0.025,0.125-0.052,0.244-0.081,0.355c-0.03,0.112-0.062,0.215-0.094,0.309l-1.807,5.581
			H102.3z"/>
		<path fill="none" stroke="#FFFFFF" stroke-width="0.2" d="M110.627,19.237h-3.117v10.381h-0.646V19.237h-3.136v-0.681h6.898
			V19.237z"/>
		<path fill="none" stroke="#FFFFFF" stroke-width="0.2" d="M112.766,29.618h-0.646V18.556h0.646V29.618z"/>
		<path fill="none" stroke="#FFFFFF" stroke-width="0.2" d="M123.269,24.083c0,0.855-0.102,1.63-0.307,2.326
			c-0.205,0.695-0.493,1.29-0.865,1.782c-0.372,0.493-0.818,0.873-1.339,1.141c-0.521,0.27-1.094,0.403-1.722,0.403
			c-0.626,0-1.2-0.134-1.718-0.403c-0.519-0.268-0.964-0.647-1.336-1.141c-0.372-0.492-0.661-1.087-0.865-1.782
			c-0.205-0.696-0.307-1.471-0.307-2.326c0-0.849,0.103-1.621,0.307-2.317c0.205-0.695,0.494-1.29,0.865-1.782
			c0.372-0.492,0.817-0.874,1.336-1.146c0.518-0.271,1.091-0.406,1.718-0.406c0.627,0,1.201,0.135,1.722,0.403
			c0.521,0.268,0.967,0.649,1.339,1.145s0.661,1.091,0.865,1.786C123.167,22.461,123.269,23.234,123.269,24.083z M122.604,24.083
			c0-0.771-0.085-1.464-0.257-2.079c-0.172-0.615-0.414-1.136-0.728-1.563c-0.313-0.427-0.69-0.754-1.129-0.98
			c-0.439-0.228-0.924-0.341-1.455-0.341c-0.526,0-1.009,0.113-1.448,0.341c-0.439,0.227-0.816,0.554-1.132,0.98
			c-0.316,0.428-0.56,0.948-0.734,1.563c-0.173,0.615-0.26,1.309-0.26,2.079c0,0.777,0.087,1.471,0.26,2.084
			c0.174,0.612,0.418,1.132,0.734,1.56c0.316,0.427,0.693,0.753,1.132,0.977c0.439,0.225,0.922,0.337,1.448,0.337
			c0.531,0,1.016-0.112,1.455-0.337c0.439-0.224,0.815-0.55,1.129-0.977c0.313-0.428,0.556-0.947,0.728-1.56
			C122.519,25.553,122.604,24.86,122.604,24.083z"/>
		<path fill="none" stroke="#FFFFFF" stroke-width="0.2" d="M132.161,18.556v11.062h-0.301c-0.054,0-0.099-0.012-0.134-0.035
			c-0.036-0.023-0.07-0.064-0.104-0.121l-5.763-9.6c0.013,0.156,0.019,0.305,0.019,0.445v9.311h-0.564V18.556h0.32
			c0.058,0,0.104,0.01,0.135,0.027c0.031,0.019,0.066,0.059,0.104,0.121l5.75,9.576c-0.012-0.156-0.019-0.305-0.019-0.446v-9.278
			H132.161z"/>
		<path fill="none" stroke="#FFFFFF" stroke-width="0.2" d="M145.662,24.083c0,0.855-0.102,1.624-0.307,2.307
			s-0.493,1.264-0.865,1.743c-0.373,0.479-0.818,0.848-1.339,1.103s-1.094,0.383-1.721,0.383h-3.242V18.556h3.242
			c0.627,0,1.201,0.128,1.721,0.384c0.521,0.255,0.966,0.622,1.339,1.102c0.372,0.479,0.66,1.061,0.865,1.743
			S145.662,23.234,145.662,24.083z M144.997,24.083c0-0.771-0.086-1.459-0.257-2.063c-0.172-0.604-0.414-1.115-0.728-1.531
			c-0.313-0.418-0.689-0.735-1.128-0.955c-0.439-0.219-0.924-0.328-1.455-0.328h-2.596v9.765h2.596c0.53,0,1.016-0.11,1.455-0.328
			c0.439-0.22,0.815-0.538,1.128-0.954c0.314-0.417,0.556-0.928,0.728-1.532C144.911,25.55,144.997,24.86,144.997,24.083z"/>
		<path fill="none" stroke="#FFFFFF" stroke-width="0.2" d="M153.048,28.954l-0.012,0.664h-5.317V18.556h5.317v0.665h-4.672v4.472
			h3.888v0.648h-3.888v4.612H153.048z"/>
		<path fill="none" stroke="#FFFFFF" stroke-width="0.2" d="M161.739,18.556l-3.662,11.062h-0.571l-3.662-11.062h0.508
			c0.058,0,0.106,0.02,0.144,0.059s0.067,0.09,0.087,0.152l3.023,9.178c0.033,0.114,0.067,0.237,0.101,0.367
			c0.033,0.131,0.064,0.264,0.094,0.398c0.025-0.135,0.052-0.268,0.081-0.398c0.03-0.13,0.063-0.253,0.101-0.367L161,18.767
			c0.017-0.057,0.046-0.107,0.088-0.147c0.042-0.042,0.091-0.063,0.15-0.063H161.739z"/>
		<path fill="none" stroke="#FFFFFF" stroke-width="0.2" d="M168.543,28.954l-0.012,0.664h-5.317V18.556h5.317v0.665h-4.672v4.472
			h3.888v0.648h-3.888v4.612H168.543z"/>
		<path fill="none" stroke="#FFFFFF" stroke-width="0.2" d="M175.334,28.938v0.68h-4.847V18.556h0.646v10.382H175.334z"/>
		<path fill="none" stroke="#FFFFFF" stroke-width="0.2" d="M184.176,24.083c0,0.855-0.102,1.63-0.307,2.326
			c-0.205,0.695-0.494,1.29-0.865,1.782c-0.373,0.493-0.818,0.873-1.339,1.141c-0.521,0.27-1.094,0.403-1.721,0.403
			c-0.627,0-1.2-0.134-1.718-0.403c-0.519-0.268-0.963-0.647-1.336-1.141c-0.372-0.492-0.66-1.087-0.865-1.782
			c-0.205-0.696-0.307-1.471-0.307-2.326c0-0.849,0.103-1.621,0.307-2.317c0.205-0.695,0.494-1.29,0.865-1.782
			c0.373-0.492,0.817-0.874,1.336-1.146c0.519-0.271,1.091-0.406,1.718-0.406c0.627,0,1.201,0.135,1.721,0.403
			c0.521,0.268,0.967,0.649,1.339,1.145c0.372,0.495,0.66,1.091,0.865,1.786C184.074,22.461,184.176,23.234,184.176,24.083z
			 M183.511,24.083c0-0.771-0.085-1.464-0.257-2.079c-0.172-0.615-0.414-1.136-0.728-1.563c-0.313-0.427-0.69-0.754-1.129-0.98
			c-0.439-0.228-0.924-0.341-1.455-0.341c-0.527,0-1.009,0.113-1.448,0.341c-0.439,0.227-0.816,0.554-1.132,0.98
			c-0.315,0.428-0.56,0.948-0.734,1.563c-0.173,0.615-0.26,1.309-0.26,2.079c0,0.777,0.087,1.471,0.26,2.084
			c0.174,0.612,0.418,1.132,0.734,1.56c0.316,0.427,0.693,0.753,1.132,0.977c0.439,0.225,0.921,0.337,1.448,0.337
			c0.531,0,1.016-0.112,1.455-0.337c0.439-0.224,0.815-0.55,1.129-0.977c0.313-0.428,0.556-0.947,0.728-1.56
			C183.426,25.553,183.511,24.86,183.511,24.083z"/>
		<path fill="none" stroke="#FFFFFF" stroke-width="0.2" d="M188.516,18.556c1.041,0,1.826,0.284,2.354,0.853
			c0.529,0.567,0.793,1.379,0.793,2.431c0,0.484-0.073,0.931-0.219,1.337s-0.355,0.757-0.627,1.051
			c-0.272,0.295-0.602,0.524-0.991,0.688s-0.826,0.246-1.311,0.246h-1.649v4.456h-0.646V18.556H188.516z M188.516,24.521
			c0.389,0,0.737-0.067,1.047-0.203s0.572-0.323,0.787-0.563c0.215-0.239,0.38-0.521,0.495-0.848
			c0.115-0.325,0.173-0.682,0.173-1.067c0-0.85-0.209-1.504-0.627-1.962c-0.418-0.459-1.043-0.688-1.875-0.688h-1.649v5.331H188.516
			z"/>
		<path fill="none" stroke="#FFFFFF" stroke-width="0.2" d="M198.799,28.954l-0.012,0.664h-5.317V18.556h5.317v0.665h-4.672v4.472
			h3.888v0.648h-3.888v4.612H198.799z"/>
		<path fill="none" stroke="#FFFFFF" stroke-width="0.2" d="M206.864,29.618h-0.552c-0.071,0-0.13-0.014-0.179-0.043
			c-0.048-0.029-0.093-0.082-0.134-0.16l-2.847-4.487c-0.034-0.058-0.068-0.106-0.104-0.148s-0.075-0.074-0.119-0.098
			s-0.096-0.04-0.157-0.051s-0.135-0.016-0.223-0.016h-1.16v5.003h-0.646V18.556h2.27c1.02,0,1.784,0.247,2.292,0.739
			s0.762,1.215,0.762,2.17c0,0.421-0.058,0.808-0.175,1.156s-0.285,0.655-0.505,0.918c-0.219,0.264-0.485,0.479-0.796,0.646
			c-0.311,0.166-0.662,0.278-1.05,0.336c0.101,0.078,0.19,0.183,0.27,0.313L206.864,29.618z M202.926,24.021
			c0.393,0,0.745-0.059,1.057-0.177c0.311-0.117,0.574-0.285,0.79-0.504s0.379-0.481,0.493-0.789
			c0.113-0.308,0.169-0.654,0.169-1.04c0-0.787-0.206-1.371-0.617-1.751c-0.412-0.38-1.013-0.57-1.803-0.57h-1.624v4.831H202.926z"
			/>
	</g>
</g>
<line fill="none" stroke="#FFFFFF" stroke-miterlimit="10" x1="173" y1="5.044" x2="226.791" y2="5.044"/>
<line fill="none" stroke="#FFFFFF" stroke-miterlimit="10" x1="0" y1="5.044" x2="59.703" y2="5.044"/>
<line fill="none" stroke="#FFFFFF" stroke-miterlimit="10" x1="206.533" y1="24.866" x2="226.75" y2="24.866"/>
<line fill="none" stroke="#FFFFFF" stroke-miterlimit="10" x1="0" y1="24.866" x2="23.777" y2="24.866"/>
<g>
	<path fill="#FFFFFF" d="M67.342,0.618H64.36v7.968h-0.618V0.618h-3V0.096h6.6V0.618z"/>
	<path fill="#FFFFFF" d="M75.814,4.338c0,0.656-0.098,1.251-0.294,1.785c-0.196,0.534-0.472,0.99-0.828,1.368
		c-0.356,0.378-0.783,0.67-1.281,0.876c-0.498,0.207-1.047,0.309-1.647,0.309s-1.148-0.103-1.644-0.309
		c-0.496-0.206-0.922-0.498-1.278-0.876c-0.356-0.378-0.632-0.834-0.828-1.368c-0.196-0.534-0.294-1.129-0.294-1.785
		c0-0.652,0.098-1.245,0.294-1.779c0.196-0.534,0.472-0.99,0.828-1.368c0.356-0.378,0.782-0.671,1.278-0.879S71.165,0,71.765,0
		s1.149,0.103,1.647,0.309s0.925,0.499,1.281,0.879s0.632,0.837,0.828,1.371C75.716,3.093,75.814,3.686,75.814,4.338z M75.179,4.338
		c0-0.592-0.082-1.124-0.246-1.596c-0.164-0.472-0.396-0.872-0.696-1.2c-0.3-0.328-0.66-0.579-1.08-0.753
		c-0.42-0.174-0.884-0.261-1.392-0.261c-0.504,0-0.966,0.087-1.386,0.261c-0.42,0.174-0.781,0.425-1.083,0.753
		c-0.302,0.328-0.536,0.728-0.702,1.2c-0.166,0.472-0.249,1.004-0.249,1.596c0,0.596,0.083,1.129,0.249,1.599
		c0.166,0.47,0.4,0.869,0.702,1.197c0.302,0.328,0.663,0.578,1.083,0.75c0.42,0.172,0.882,0.258,1.386,0.258
		c0.508,0,0.972-0.086,1.392-0.258c0.42-0.172,0.78-0.422,1.08-0.75c0.3-0.328,0.532-0.727,0.696-1.197S75.179,4.934,75.179,4.338z"
		/>
	<path fill="#FFFFFF" d="M86.158,0.096v8.49h-0.534V1.35c0-0.104,0.006-0.214,0.018-0.33L82.3,6.954
		c-0.056,0.104-0.136,0.156-0.24,0.156h-0.096c-0.104,0-0.184-0.052-0.24-0.156l-3.432-5.946c0.012,0.12,0.018,0.234,0.018,0.342
		v7.236h-0.54v-8.49h0.426c0.056,0,0.1,0.006,0.132,0.018c0.032,0.012,0.064,0.044,0.096,0.096l3.426,5.904
		c0.06,0.112,0.112,0.232,0.156,0.36c0.024-0.064,0.05-0.127,0.078-0.189s0.058-0.121,0.09-0.177l3.33-5.898
		c0.032-0.052,0.065-0.084,0.099-0.096c0.034-0.012,0.079-0.018,0.135-0.018H86.158z"/>
	<path fill="#FFFFFF" d="M95.122,8.586h-0.474c-0.056,0-0.102-0.015-0.138-0.045c-0.036-0.03-0.064-0.069-0.084-0.117L93.43,5.958
		h-4.17l-0.996,2.466c-0.016,0.044-0.044,0.082-0.084,0.114c-0.04,0.032-0.088,0.048-0.144,0.048h-0.468l3.474-8.49h0.606
		L95.122,8.586z M93.244,5.502l-1.728-4.29c-0.06-0.14-0.118-0.308-0.174-0.504c-0.024,0.096-0.05,0.187-0.078,0.273
		c-0.028,0.086-0.058,0.165-0.09,0.237l-1.728,4.284H93.244z"/>
	<path fill="#FFFFFF" d="M100.654,1.128c-0.036,0.068-0.088,0.102-0.156,0.102c-0.052,0-0.119-0.037-0.201-0.111
		c-0.082-0.074-0.193-0.156-0.333-0.246c-0.14-0.09-0.315-0.173-0.525-0.249S98.97,0.51,98.662,0.51
		c-0.308,0-0.579,0.044-0.813,0.132c-0.234,0.088-0.43,0.208-0.588,0.36s-0.278,0.328-0.36,0.528c-0.082,0.2-0.123,0.41-0.123,0.63
		c0,0.288,0.061,0.526,0.183,0.714s0.283,0.348,0.483,0.48s0.427,0.243,0.681,0.333c0.254,0.09,0.515,0.179,0.783,0.267
		s0.529,0.185,0.783,0.291s0.481,0.239,0.681,0.399c0.2,0.16,0.361,0.357,0.483,0.591c0.122,0.234,0.183,0.525,0.183,0.873
		c0,0.356-0.061,0.691-0.183,1.005c-0.122,0.314-0.299,0.587-0.531,0.819s-0.516,0.415-0.852,0.549s-0.72,0.201-1.152,0.201
		c-0.56,0-1.042-0.099-1.446-0.297c-0.404-0.198-0.758-0.469-1.062-0.813l0.168-0.264c0.048-0.06,0.104-0.09,0.168-0.09
		c0.036,0,0.082,0.024,0.138,0.072c0.056,0.048,0.124,0.107,0.204,0.177c0.08,0.07,0.176,0.146,0.288,0.228s0.242,0.158,0.39,0.228
		c0.148,0.07,0.318,0.129,0.51,0.177c0.192,0.048,0.41,0.072,0.654,0.072c0.336,0,0.636-0.051,0.9-0.153
		c0.264-0.102,0.487-0.241,0.669-0.417c0.182-0.176,0.321-0.385,0.417-0.627c0.096-0.242,0.144-0.501,0.144-0.777
		c0-0.3-0.061-0.547-0.183-0.741s-0.283-0.356-0.483-0.486c-0.2-0.13-0.427-0.239-0.681-0.327S98.6,4.47,98.332,4.386
		c-0.268-0.084-0.529-0.178-0.783-0.282s-0.481-0.237-0.681-0.399c-0.2-0.162-0.361-0.364-0.483-0.606
		c-0.122-0.242-0.183-0.545-0.183-0.909c0-0.284,0.054-0.558,0.162-0.822c0.108-0.264,0.266-0.497,0.474-0.699
		s0.465-0.364,0.771-0.486S98.264,0,98.656,0c0.44,0,0.835,0.07,1.185,0.21s0.669,0.354,0.957,0.642L100.654,1.128z"/>
	<path fill="#FFFFFF" d="M110.332,1.128c-0.036,0.068-0.088,0.102-0.156,0.102c-0.052,0-0.119-0.037-0.201-0.111
		c-0.082-0.074-0.193-0.156-0.333-0.246c-0.14-0.09-0.315-0.173-0.525-0.249s-0.469-0.114-0.777-0.114
		c-0.308,0-0.579,0.044-0.813,0.132c-0.234,0.088-0.43,0.208-0.588,0.36s-0.278,0.328-0.36,0.528c-0.082,0.2-0.123,0.41-0.123,0.63
		c0,0.288,0.061,0.526,0.183,0.714s0.283,0.348,0.483,0.48s0.427,0.243,0.681,0.333c0.254,0.09,0.515,0.179,0.783,0.267
		s0.529,0.185,0.783,0.291s0.481,0.239,0.681,0.399c0.2,0.16,0.361,0.357,0.483,0.591c0.122,0.234,0.183,0.525,0.183,0.873
		c0,0.356-0.061,0.691-0.183,1.005c-0.122,0.314-0.299,0.587-0.531,0.819s-0.516,0.415-0.852,0.549s-0.72,0.201-1.152,0.201
		c-0.56,0-1.042-0.099-1.446-0.297c-0.404-0.198-0.758-0.469-1.062-0.813l0.168-0.264c0.048-0.06,0.104-0.09,0.168-0.09
		c0.036,0,0.082,0.024,0.138,0.072c0.056,0.048,0.124,0.107,0.204,0.177c0.08,0.07,0.176,0.146,0.288,0.228s0.242,0.158,0.39,0.228
		c0.148,0.07,0.318,0.129,0.51,0.177c0.192,0.048,0.41,0.072,0.654,0.072c0.336,0,0.636-0.051,0.9-0.153
		c0.264-0.102,0.487-0.241,0.669-0.417c0.182-0.176,0.321-0.385,0.417-0.627c0.096-0.242,0.144-0.501,0.144-0.777
		c0-0.3-0.061-0.547-0.183-0.741s-0.283-0.356-0.483-0.486c-0.2-0.13-0.427-0.239-0.681-0.327s-0.515-0.174-0.783-0.258
		c-0.268-0.084-0.529-0.178-0.783-0.282s-0.481-0.237-0.681-0.399c-0.2-0.162-0.361-0.364-0.483-0.606
		c-0.122-0.242-0.183-0.545-0.183-0.909c0-0.284,0.054-0.558,0.162-0.822c0.108-0.264,0.266-0.497,0.474-0.699
		s0.465-0.364,0.771-0.486S107.942,0,108.334,0c0.44,0,0.835,0.07,1.185,0.21s0.669,0.354,0.957,0.642L110.332,1.128z"/>
	<path fill="#FFFFFF" d="M118.755,7.158c0.04,0,0.074,0.014,0.102,0.042l0.24,0.258c-0.176,0.188-0.367,0.357-0.573,0.507
		s-0.432,0.278-0.678,0.384c-0.246,0.106-0.516,0.188-0.81,0.246c-0.294,0.058-0.617,0.087-0.969,0.087
		c-0.588,0-1.127-0.103-1.617-0.309c-0.49-0.206-0.911-0.498-1.263-0.876s-0.625-0.835-0.819-1.371
		c-0.194-0.536-0.291-1.132-0.291-1.788c0-0.644,0.1-1.232,0.3-1.764c0.2-0.532,0.48-0.989,0.84-1.371
		c0.36-0.382,0.792-0.678,1.296-0.888c0.504-0.21,1.06-0.315,1.668-0.315c0.58,0,1.094,0.09,1.542,0.27
		c0.448,0.18,0.856,0.434,1.224,0.762l-0.186,0.27c-0.032,0.048-0.082,0.072-0.15,0.072c-0.048,0-0.126-0.044-0.234-0.132
		c-0.108-0.088-0.258-0.185-0.45-0.291c-0.192-0.106-0.431-0.203-0.717-0.291c-0.286-0.088-0.629-0.132-1.029-0.132
		c-0.512,0-0.981,0.088-1.407,0.264c-0.426,0.176-0.792,0.428-1.098,0.756c-0.306,0.328-0.545,0.728-0.717,1.2
		c-0.172,0.472-0.258,1.002-0.258,1.59c0,0.6,0.087,1.136,0.261,1.608c0.174,0.472,0.413,0.871,0.717,1.197
		c0.304,0.326,0.663,0.576,1.077,0.75c0.414,0.174,0.861,0.261,1.341,0.261c0.304,0,0.575-0.02,0.813-0.06
		c0.238-0.04,0.457-0.1,0.657-0.18s0.386-0.178,0.558-0.294c0.172-0.116,0.342-0.252,0.51-0.408c0.02-0.016,0.04-0.029,0.06-0.039
		C118.715,7.163,118.735,7.158,118.755,7.158z"/>
	<path fill="#FFFFFF" d="M127.294,0.096v8.49h-0.618V4.518h-5.316v4.068h-0.618v-8.49h0.618v3.96h5.316v-3.96H127.294z"/>
	<path fill="#FFFFFF" d="M134.439,8.064v0.522h-4.638v-8.49h0.618v7.968H134.439z"/>
	<path fill="#FFFFFF" d="M140.974,8.076l-0.012,0.51h-5.088v-8.49h5.088v0.51h-4.47v3.432h3.72v0.498h-3.72v3.54H140.974z"/>
	<path fill="#FFFFFF" d="M145.03,0.096c0.996,0,1.747,0.218,2.253,0.654c0.506,0.436,0.759,1.058,0.759,1.866
		c0,0.372-0.07,0.714-0.21,1.026s-0.34,0.581-0.6,0.807c-0.26,0.226-0.576,0.402-0.948,0.528s-0.79,0.189-1.254,0.189h-1.578v3.42
		h-0.618v-8.49H145.03z M145.03,4.674c0.372,0,0.706-0.052,1.002-0.156c0.296-0.104,0.547-0.248,0.753-0.432
		s0.364-0.401,0.474-0.651c0.11-0.25,0.165-0.523,0.165-0.819c0-0.652-0.2-1.154-0.6-1.506c-0.4-0.352-0.998-0.528-1.794-0.528
		h-1.578v4.092H145.03z"/>
	<path fill="#FFFFFF" d="M154.869,8.076l-0.012,0.51h-5.088v-8.49h5.088v0.51h-4.47v3.432h3.72v0.498h-3.72v3.54H154.869z"/>
	<path fill="#FFFFFF" d="M162.585,8.586h-0.528c-0.068,0-0.125-0.011-0.171-0.033c-0.046-0.022-0.089-0.063-0.129-0.123
		l-2.724-3.444c-0.032-0.044-0.065-0.082-0.099-0.114c-0.034-0.032-0.072-0.057-0.114-0.075s-0.092-0.031-0.15-0.039
		c-0.058-0.008-0.129-0.012-0.213-0.012h-1.11v3.84h-0.618v-8.49h2.172c0.976,0,1.707,0.189,2.193,0.567
		c0.486,0.378,0.729,0.933,0.729,1.665c0,0.324-0.056,0.62-0.168,0.888c-0.112,0.268-0.273,0.503-0.483,0.705
		c-0.21,0.202-0.464,0.367-0.762,0.495s-0.633,0.214-1.005,0.258c0.096,0.06,0.182,0.14,0.258,0.24L162.585,8.586z M158.817,4.29
		c0.376,0,0.713-0.045,1.011-0.135c0.298-0.09,0.55-0.219,0.756-0.387s0.363-0.37,0.471-0.606c0.108-0.236,0.162-0.502,0.162-0.798
		c0-0.604-0.197-1.052-0.591-1.344s-0.969-0.438-1.725-0.438h-1.554V4.29H158.817z"/>
	<path fill="#FFFFFF" d="M168.135,1.128c-0.036,0.068-0.088,0.102-0.156,0.102c-0.052,0-0.119-0.037-0.201-0.111
		c-0.082-0.074-0.193-0.156-0.333-0.246c-0.14-0.09-0.315-0.173-0.525-0.249s-0.469-0.114-0.777-0.114
		c-0.308,0-0.579,0.044-0.813,0.132c-0.234,0.088-0.43,0.208-0.588,0.36s-0.278,0.328-0.36,0.528c-0.082,0.2-0.123,0.41-0.123,0.63
		c0,0.288,0.061,0.526,0.183,0.714s0.283,0.348,0.483,0.48s0.427,0.243,0.681,0.333c0.254,0.09,0.515,0.179,0.783,0.267
		s0.529,0.185,0.783,0.291s0.481,0.239,0.681,0.399c0.2,0.16,0.361,0.357,0.483,0.591c0.122,0.234,0.183,0.525,0.183,0.873
		c0,0.356-0.061,0.691-0.183,1.005c-0.122,0.314-0.299,0.587-0.531,0.819s-0.516,0.415-0.852,0.549s-0.72,0.201-1.152,0.201
		c-0.56,0-1.042-0.099-1.446-0.297c-0.404-0.198-0.758-0.469-1.062-0.813l0.168-0.264c0.048-0.06,0.104-0.09,0.168-0.09
		c0.036,0,0.082,0.024,0.138,0.072c0.056,0.048,0.124,0.107,0.204,0.177c0.08,0.07,0.176,0.146,0.288,0.228s0.242,0.158,0.39,0.228
		c0.148,0.07,0.318,0.129,0.51,0.177c0.192,0.048,0.41,0.072,0.654,0.072c0.336,0,0.636-0.051,0.9-0.153
		c0.264-0.102,0.487-0.241,0.669-0.417c0.182-0.176,0.321-0.385,0.417-0.627c0.096-0.242,0.144-0.501,0.144-0.777
		c0-0.3-0.061-0.547-0.183-0.741s-0.283-0.356-0.483-0.486c-0.2-0.13-0.427-0.239-0.681-0.327s-0.515-0.174-0.783-0.258
		c-0.268-0.084-0.529-0.178-0.783-0.282s-0.481-0.237-0.681-0.399c-0.2-0.162-0.361-0.364-0.483-0.606
		c-0.122-0.242-0.183-0.545-0.183-0.909c0-0.284,0.054-0.558,0.162-0.822c0.108-0.264,0.266-0.497,0.474-0.699
		s0.465-0.364,0.771-0.486S165.745,0,166.137,0c0.44,0,0.835,0.07,1.185,0.21s0.669,0.354,0.957,0.642L168.135,1.128z"/>
</g>
<g>
	<path fill="#FFFFFF" d="M38.825,19.917l-2.67,8.49h-0.552l-2.508-7.368c-0.032-0.1-0.06-0.204-0.084-0.312
		c-0.024,0.108-0.052,0.212-0.084,0.312l-2.514,7.368h-0.546l-2.676-8.49h0.51c0.116,0,0.19,0.054,0.222,0.162l2.142,6.978
		c0.044,0.16,0.084,0.342,0.12,0.546c0.02-0.104,0.04-0.201,0.06-0.291c0.02-0.09,0.044-0.175,0.072-0.255l2.4-6.978
		c0.016-0.044,0.044-0.082,0.084-0.114c0.04-0.032,0.088-0.048,0.144-0.048h0.168c0.056,0,0.102,0.015,0.138,0.045
		c0.036,0.03,0.064,0.069,0.084,0.117l2.4,6.978c0.028,0.076,0.053,0.16,0.075,0.252c0.022,0.092,0.043,0.188,0.063,0.288
		c0.02-0.1,0.039-0.195,0.057-0.285c0.018-0.09,0.037-0.175,0.057-0.255l2.142-6.978c0.012-0.044,0.039-0.082,0.081-0.114
		c0.042-0.032,0.091-0.048,0.147-0.048H38.825z"/>
	<path fill="#FFFFFF" d="M45.467,27.898l-0.012,0.51h-5.088v-8.49h5.088v0.51h-4.47v3.432h3.72v0.498h-3.72v3.54H45.467z"/>
	<path fill="#FFFFFF" d="M49.769,19.917c0.484,0,0.904,0.048,1.26,0.144c0.356,0.096,0.65,0.237,0.882,0.423
		s0.404,0.413,0.516,0.681c0.112,0.268,0.168,0.572,0.168,0.912c0,0.224-0.039,0.44-0.117,0.648c-0.078,0.208-0.19,0.4-0.336,0.576
		s-0.326,0.329-0.54,0.459c-0.214,0.13-0.459,0.229-0.735,0.297c0.668,0.096,1.181,0.317,1.539,0.663
		c0.358,0.346,0.537,0.801,0.537,1.365c0,0.36-0.064,0.684-0.192,0.972c-0.128,0.288-0.314,0.532-0.558,0.732
		c-0.244,0.2-0.544,0.353-0.9,0.459c-0.356,0.106-0.76,0.159-1.212,0.159h-2.754v-8.49H49.769z M47.945,20.404v3.486h1.836
		c0.392,0,0.727-0.05,1.005-0.15c0.278-0.1,0.506-0.232,0.684-0.396c0.178-0.164,0.309-0.35,0.393-0.558s0.126-0.422,0.126-0.642
		c0-0.572-0.181-1.005-0.543-1.299c-0.362-0.294-0.921-0.441-1.677-0.441H47.945z M50.075,27.916c0.744,0,1.307-0.161,1.689-0.483
		c0.382-0.322,0.573-0.775,0.573-1.359c0-0.268-0.051-0.509-0.153-0.723c-0.102-0.214-0.249-0.396-0.441-0.546
		s-0.428-0.265-0.708-0.345c-0.28-0.08-0.598-0.12-0.954-0.12h-2.136v3.576H50.075z"/>
	<path fill="#FFFFFF" d="M64.229,28.408h-0.474c-0.056,0-0.102-0.015-0.138-0.045c-0.036-0.03-0.064-0.069-0.084-0.117l-0.996-2.466
		h-4.17l-0.996,2.466c-0.016,0.044-0.044,0.082-0.084,0.114c-0.04,0.032-0.088,0.048-0.144,0.048h-0.468l3.474-8.49h0.606
		L64.229,28.408z M62.351,25.324l-1.728-4.29c-0.06-0.14-0.118-0.308-0.174-0.504c-0.024,0.096-0.05,0.187-0.078,0.273
		c-0.028,0.086-0.058,0.165-0.09,0.237l-1.728,4.284H62.351z"/>
	<path fill="#FFFFFF" d="M67.835,19.917c0.996,0,1.747,0.218,2.253,0.654c0.506,0.436,0.759,1.058,0.759,1.866
		c0,0.372-0.07,0.714-0.21,1.026s-0.34,0.581-0.6,0.807c-0.26,0.226-0.576,0.402-0.948,0.528s-0.79,0.189-1.254,0.189h-1.578v3.42
		h-0.618v-8.49H67.835z M67.835,24.496c0.372,0,0.706-0.052,1.002-0.156c0.296-0.104,0.547-0.248,0.753-0.432
		s0.364-0.401,0.474-0.651c0.11-0.25,0.165-0.523,0.165-0.819c0-0.652-0.2-1.154-0.6-1.506c-0.4-0.352-0.998-0.528-1.794-0.528
		h-1.578v4.092H67.835z"/>
	<path fill="#FFFFFF" d="M74.771,19.917c0.996,0,1.747,0.218,2.253,0.654c0.506,0.436,0.759,1.058,0.759,1.866
		c0,0.372-0.07,0.714-0.21,1.026s-0.34,0.581-0.6,0.807c-0.26,0.226-0.576,0.402-0.948,0.528s-0.79,0.189-1.254,0.189h-1.578v3.42
		h-0.618v-8.49H74.771z M74.771,24.496c0.372,0,0.706-0.052,1.002-0.156c0.296-0.104,0.547-0.248,0.753-0.432
		S76.89,23.507,77,23.257c0.11-0.25,0.165-0.523,0.165-0.819c0-0.652-0.2-1.154-0.6-1.506c-0.4-0.352-0.998-0.528-1.794-0.528
		h-1.578v4.092H74.771z"/>
	<path fill="#FFFFFF" d="M84.148,27.886v0.522H79.51v-8.49h0.618v7.968H84.148z"/>
	<path fill="#FFFFFF" d="M86.201,28.408h-0.618v-8.49h0.618V28.408z"/>
	<path fill="#FFFFFF" d="M94.834,26.979c0.04,0,0.074,0.014,0.102,0.042l0.24,0.258c-0.176,0.188-0.367,0.357-0.573,0.507
		s-0.432,0.278-0.678,0.384c-0.246,0.106-0.516,0.188-0.81,0.246c-0.294,0.058-0.617,0.087-0.969,0.087
		c-0.588,0-1.127-0.103-1.617-0.309c-0.49-0.206-0.911-0.498-1.263-0.876s-0.625-0.835-0.819-1.371
		c-0.194-0.536-0.291-1.132-0.291-1.788c0-0.644,0.1-1.232,0.3-1.764c0.2-0.532,0.48-0.989,0.84-1.371
		c0.36-0.382,0.792-0.678,1.296-0.888c0.504-0.21,1.06-0.315,1.668-0.315c0.58,0,1.094,0.09,1.542,0.27
		c0.448,0.18,0.856,0.434,1.224,0.762l-0.186,0.27c-0.032,0.048-0.082,0.072-0.15,0.072c-0.048,0-0.126-0.044-0.234-0.132
		c-0.108-0.088-0.258-0.185-0.45-0.291c-0.192-0.106-0.431-0.203-0.717-0.291c-0.286-0.088-0.629-0.132-1.029-0.132
		c-0.512,0-0.981,0.088-1.407,0.264c-0.426,0.176-0.792,0.428-1.098,0.756c-0.306,0.328-0.545,0.728-0.717,1.2
		c-0.172,0.472-0.258,1.002-0.258,1.59c0,0.6,0.087,1.136,0.261,1.608c0.174,0.472,0.413,0.871,0.717,1.197
		c0.304,0.326,0.663,0.576,1.077,0.75c0.414,0.174,0.861,0.261,1.341,0.261c0.304,0,0.575-0.02,0.813-0.06
		c0.238-0.04,0.457-0.1,0.657-0.18s0.386-0.178,0.558-0.294c0.172-0.116,0.342-0.252,0.51-0.408c0.02-0.016,0.04-0.029,0.06-0.039
		C94.794,26.985,94.814,26.979,94.834,26.979z"/>
	<path fill="#FFFFFF" d="M103.276,28.408h-0.474c-0.056,0-0.102-0.015-0.138-0.045c-0.036-0.03-0.064-0.069-0.084-0.117
		l-0.996-2.466h-4.17l-0.996,2.466c-0.016,0.044-0.044,0.082-0.084,0.114c-0.04,0.032-0.088,0.048-0.144,0.048h-0.468l3.474-8.49
		h0.606L103.276,28.408z M101.398,25.324l-1.728-4.29c-0.06-0.14-0.118-0.308-0.174-0.504c-0.024,0.096-0.05,0.187-0.078,0.273
		c-0.028,0.086-0.058,0.165-0.09,0.237l-1.728,4.284H101.398z"/>
	<path fill="#FFFFFF" d="M109.366,20.44h-2.982v7.968h-0.618V20.44h-3v-0.522h6.6V20.44z"/>
	<path fill="#FFFFFF" d="M111.412,28.408h-0.618v-8.49h0.618V28.408z"/>
	<path fill="#FFFFFF" d="M121.462,24.16c0,0.656-0.098,1.251-0.294,1.785c-0.196,0.534-0.472,0.99-0.828,1.368
		c-0.356,0.378-0.783,0.67-1.281,0.876c-0.498,0.207-1.047,0.309-1.647,0.309s-1.148-0.103-1.644-0.309
		c-0.496-0.206-0.922-0.498-1.278-0.876c-0.356-0.378-0.632-0.834-0.828-1.368c-0.196-0.534-0.294-1.129-0.294-1.785
		c0-0.652,0.098-1.245,0.294-1.779c0.196-0.534,0.472-0.99,0.828-1.368c0.356-0.378,0.782-0.671,1.278-0.879
		s1.044-0.312,1.644-0.312s1.149,0.103,1.647,0.309s0.925,0.499,1.281,0.879s0.632,0.837,0.828,1.371
		C121.364,22.915,121.462,23.508,121.462,24.16z M120.826,24.16c0-0.592-0.082-1.124-0.246-1.596
		c-0.164-0.472-0.396-0.872-0.696-1.2c-0.3-0.328-0.66-0.579-1.08-0.753c-0.42-0.174-0.884-0.261-1.392-0.261
		c-0.504,0-0.966,0.087-1.386,0.261c-0.42,0.174-0.781,0.425-1.083,0.753c-0.302,0.328-0.536,0.728-0.702,1.2
		c-0.166,0.472-0.249,1.004-0.249,1.596c0,0.596,0.083,1.129,0.249,1.599c0.166,0.47,0.4,0.869,0.702,1.197
		c0.302,0.328,0.663,0.578,1.083,0.75c0.42,0.172,0.882,0.258,1.386,0.258c0.508,0,0.972-0.086,1.392-0.258
		c0.42-0.172,0.78-0.422,1.08-0.75c0.3-0.328,0.532-0.727,0.696-1.197S120.826,24.756,120.826,24.16z"/>
	<path fill="#FFFFFF" d="M129.97,19.917v8.49h-0.288c-0.052,0-0.095-0.009-0.129-0.027c-0.034-0.018-0.067-0.049-0.099-0.093
		l-5.514-7.368c0.012,0.12,0.018,0.234,0.018,0.342v7.146h-0.54v-8.49h0.306c0.056,0,0.099,0.007,0.129,0.021
		c0.03,0.014,0.063,0.045,0.099,0.093l5.502,7.35c-0.012-0.12-0.018-0.234-0.018-0.342v-7.122H129.97z"/>
	<path fill="#FFFFFF" d="M142.888,24.16c0,0.656-0.098,1.246-0.294,1.77c-0.196,0.524-0.472,0.97-0.828,1.338
		c-0.356,0.368-0.783,0.65-1.281,0.846s-1.047,0.294-1.647,0.294h-3.102v-8.49h3.102c0.6,0,1.149,0.098,1.647,0.294
		c0.498,0.196,0.925,0.478,1.281,0.846c0.356,0.368,0.632,0.814,0.828,1.338C142.79,22.92,142.888,23.508,142.888,24.16z
		 M142.252,24.16c0-0.592-0.082-1.12-0.246-1.584s-0.396-0.856-0.696-1.176c-0.3-0.32-0.66-0.564-1.08-0.732
		c-0.42-0.168-0.884-0.252-1.392-0.252h-2.484v7.494h2.484c0.508,0,0.972-0.084,1.392-0.252s0.78-0.412,1.08-0.732
		c0.3-0.32,0.532-0.712,0.696-1.176C142.17,25.286,142.252,24.756,142.252,24.16z"/>
	<path fill="#FFFFFF" d="M149.956,27.898l-0.012,0.51h-5.088v-8.49h5.088v0.51h-4.47v3.432h3.72v0.498h-3.72v3.54H149.956z"/>
	<path fill="#FFFFFF" d="M158.271,19.917l-3.504,8.49h-0.546l-3.504-8.49h0.486c0.056,0,0.102,0.015,0.138,0.045
		c0.036,0.03,0.064,0.069,0.084,0.117l2.892,7.044c0.032,0.088,0.064,0.182,0.096,0.282c0.032,0.1,0.062,0.202,0.09,0.306
		c0.024-0.104,0.05-0.206,0.078-0.306s0.06-0.194,0.096-0.282l2.886-7.044c0.016-0.044,0.044-0.082,0.084-0.114
		c0.04-0.032,0.088-0.048,0.144-0.048H158.271z"/>
	<path fill="#FFFFFF" d="M164.782,27.898l-0.012,0.51h-5.088v-8.49h5.088v0.51h-4.47v3.432h3.72v0.498h-3.72v3.54H164.782z"/>
	<path fill="#FFFFFF" d="M171.28,27.886v0.522h-4.638v-8.49h0.618v7.968H171.28z"/>
	<path fill="#FFFFFF" d="M179.739,24.16c0,0.656-0.098,1.251-0.294,1.785c-0.196,0.534-0.472,0.99-0.828,1.368
		c-0.356,0.378-0.783,0.67-1.281,0.876c-0.498,0.207-1.047,0.309-1.647,0.309s-1.148-0.103-1.644-0.309
		c-0.496-0.206-0.922-0.498-1.278-0.876c-0.356-0.378-0.632-0.834-0.828-1.368c-0.196-0.534-0.294-1.129-0.294-1.785
		c0-0.652,0.098-1.245,0.294-1.779c0.196-0.534,0.472-0.99,0.828-1.368c0.356-0.378,0.782-0.671,1.278-0.879
		s1.044-0.312,1.644-0.312s1.149,0.103,1.647,0.309s0.925,0.499,1.281,0.879s0.632,0.837,0.828,1.371
		C179.641,22.915,179.739,23.508,179.739,24.16z M179.104,24.16c0-0.592-0.082-1.124-0.246-1.596
		c-0.164-0.472-0.396-0.872-0.696-1.2c-0.3-0.328-0.66-0.579-1.08-0.753c-0.42-0.174-0.884-0.261-1.392-0.261
		c-0.504,0-0.966,0.087-1.386,0.261c-0.42,0.174-0.781,0.425-1.083,0.753c-0.302,0.328-0.536,0.728-0.702,1.2
		c-0.166,0.472-0.249,1.004-0.249,1.596c0,0.596,0.083,1.129,0.249,1.599c0.166,0.47,0.4,0.869,0.702,1.197
		c0.302,0.328,0.663,0.578,1.083,0.75c0.42,0.172,0.882,0.258,1.386,0.258c0.508,0,0.972-0.086,1.392-0.258
		c0.42-0.172,0.78-0.422,1.08-0.75c0.3-0.328,0.532-0.727,0.696-1.197S179.104,24.756,179.104,24.16z"/>
	<path fill="#FFFFFF" d="M183.892,19.917c0.996,0,1.747,0.218,2.253,0.654c0.506,0.436,0.759,1.058,0.759,1.866
		c0,0.372-0.07,0.714-0.21,1.026s-0.34,0.581-0.6,0.807c-0.26,0.226-0.576,0.402-0.948,0.528s-0.79,0.189-1.254,0.189h-1.578v3.42
		h-0.618v-8.49H183.892z M183.892,24.496c0.372,0,0.706-0.052,1.002-0.156c0.296-0.104,0.547-0.248,0.753-0.432
		s0.364-0.401,0.474-0.651c0.11-0.25,0.165-0.523,0.165-0.819c0-0.652-0.2-1.154-0.6-1.506c-0.4-0.352-0.998-0.528-1.794-0.528
		h-1.578v4.092H183.892z"/>
	<path fill="#FFFFFF" d="M193.731,27.898l-0.012,0.51h-5.088v-8.49h5.088v0.51h-4.47v3.432h3.72v0.498h-3.72v3.54H193.731z"/>
	<path fill="#FFFFFF" d="M201.447,28.408h-0.528c-0.068,0-0.125-0.011-0.171-0.033c-0.046-0.022-0.089-0.063-0.129-0.123
		l-2.724-3.444c-0.032-0.044-0.065-0.082-0.099-0.114c-0.034-0.032-0.072-0.057-0.114-0.075s-0.092-0.031-0.15-0.039
		c-0.058-0.008-0.129-0.012-0.213-0.012h-1.11v3.84h-0.618v-8.49h2.172c0.976,0,1.707,0.189,2.193,0.567
		c0.486,0.378,0.729,0.933,0.729,1.665c0,0.324-0.056,0.62-0.168,0.888c-0.112,0.268-0.273,0.503-0.483,0.705
		c-0.21,0.202-0.464,0.367-0.762,0.495s-0.633,0.214-1.005,0.258c0.096,0.06,0.182,0.14,0.258,0.24L201.447,28.408z M197.679,24.112
		c0.376,0,0.713-0.045,1.011-0.135c0.298-0.09,0.55-0.219,0.756-0.387s0.363-0.37,0.471-0.606c0.108-0.236,0.162-0.502,0.162-0.798
		c0-0.604-0.197-1.052-0.591-1.344s-0.969-0.438-1.725-0.438h-1.554v3.708H197.679z"/>
</g>
</svg>
