<?xml version="1.0" encoding="utf-8"?>
<!-- Generator: Adobe Illustrator 16.0.0, SVG Export Plug-In . SVG Version: 6.00 Build 0)  -->
<!DOCTYPE svg PUBLIC "-//W3C//DTD SVG 1.1//EN" "http://www.w3.org/Graphics/SVG/1.1/DTD/svg11.dtd">
<svg version="1.1" xmlns="http://www.w3.org/2000/svg" xmlns:xlink="http://www.w3.org/1999/xlink" x="0px" y="0px" width="128px"
	 height="128px" viewBox="0 0 128 128" enable-background="new 0 0 128 128" xml:space="preserve">
<g id="Facebook">
	<g id="Facebook_12_">
		<rect id="back_109_" fill="#37AEE5" width="128" height="128"/>
		<path id="Facebook_13_" fill="#0F181C" d="M95.884,28.16H32.116c-2.186,0-3.956,1.771-3.956,3.956v63.768
			c0,2.185,1.771,3.956,3.956,3.956h34.33V72.082h-9.341V61.264h9.341v-7.978c0-9.259,5.654-14.3,13.914-14.3
			c3.956,0,7.355,0.295,8.347,0.426v9.676l-5.728,0.002c-4.492,0-5.361,2.135-5.361,5.268v6.906H88.33l-1.395,10.818h-9.317V99.84
			h18.266c2.185,0,3.956-1.771,3.956-3.956V32.116C99.84,29.931,98.068,28.16,95.884,28.16z"/>
	</g>
</g>
<g id="GitHub">
</g>
<g id="Layer_3">
</g>
</svg>
