<?xml version="1.0" encoding="utf-8"?>
<!-- Generator: Adobe Illustrator 16.0.0, SVG Export Plug-In . SVG Version: 6.00 Build 0)  -->
<!DOCTYPE svg PUBLIC "-//W3C//DTD SVG 1.1//EN" "http://www.w3.org/Graphics/SVG/1.1/DTD/svg11.dtd">
<svg version="1.1" xmlns="http://www.w3.org/2000/svg" xmlns:xlink="http://www.w3.org/1999/xlink" x="0px" y="0px" width="128px"
	 height="128px" viewBox="0 0 128 128" enable-background="new 0 0 128 128" xml:space="preserve">
<g id="Facebook">
</g>
<g id="GitHub">
</g>
<g id="Layer_3">
	<g id="Linkedin_12_">
		<rect id="back_113_" fill="#37AEE5" width="128" height="128"/>
		<g id="Linkedin_13_">
			<path fill="#0F181C" d="M29.075,51.747h14.869v47.792H29.075V51.747z M36.514,27.99c4.751,0,8.609,3.858,8.609,8.613
				s-3.857,8.613-8.609,8.613c-4.771,0-8.617-3.858-8.617-8.613S31.743,27.99,36.514,27.99"/>
			<path fill="#0F181C" d="M53.262,51.747H67.5v6.534h0.204c1.98-3.758,6.827-7.721,14.053-7.721
				c15.04,0,17.819,9.896,17.819,22.768v26.211H84.724V76.298c0-5.542-0.095-12.672-7.718-12.672c-7.729,0-8.909,6.04-8.909,12.275
				v23.638H53.262V51.747z"/>
		</g>
	</g>
</g>
</svg>
